Samaano-Bold.ufo
<glyph name="two" format="2">
  <advance width="1024"/>
  <unicode hex="0032"/>
  <outline>
    <contour>
      <point x="109" y="1344" type="line"/>
      <point x="718" y="1344" type="line"/>
      <point x="718" y="908" type="line"/>
      <point x="116" y="908" type="line"/>
      <point x="116" y="0" type="line"/>
      <point x="904" y="0" type="line"/>
      <point x="904" y="200" type="line"/>
      <point x="319" y="200" type="line"/>
      <point x="319" y="707" type="line"/>
      <point x="918" y="707" type="line"/>
      <point x="918" y="1548" type="line"/>
      <point x="109" y="1548" type="line"/>
    </contour>
  </outline>
</glyph>
<glyph name="F" format="2">
  <advance width="1024"/>
  <unicode hex="0046"/>
  <anchor x="521" y="1630" name="top"/>
  <anchor x="266" y="-71" name="base"/>
  <outline>
    <contour>
      <point x="141" y="1548" type="line"/>
      <point x="141" y="0" type="line"/>
      <point x="341" y="0" type="line"/>
      <point x="341" y="1548" type="line"/>
    </contour>
    <contour>
      <point x="243" y="1548" type="line"/>
      <point x="243" y="1347" type="line"/>
      <point x="877" y="1347" type="line"/>
      <point x="877" y="1548" type="line"/>
    </contour>
    <contour>
      <point x="231" y="875" type="line"/>
      <point x="231" y="672" type="line"/>
      <point x="780" y="672" type="line"/>
      <point x="780" y="875" type="line"/>
    </contour>
  </outline>
</glyph>
<glyph name="H" format="2">
  <advance width="1024"/>
  <unicode hex="0048"/>
  <anchor x="506" y="1625" name="top"/>
  <anchor x="496" y="-34" name="base"/>
  <outline>
    <contour>
      <point x="114" y="1537" type="line"/>
      <point x="114" y="0" type="line"/>
      <point x="314" y="0" type="line"/>
      <point x="314" y="1537" type="line"/>
    </contour>
    <contour>
      <point x="700" y="1537" type="line"/>
      <point x="700" y="0" type="line"/>
      <point x="910" y="0" type="line"/>
      <point x="910" y="1537" type="line"/>
    </contour>
    <contour>
      <point x="234" y="1023" type="line"/>
      <point x="234" y="818" type="line"/>
      <point x="780" y="818" type="line"/>
      <point x="780" y="1023" type="line"/>
    </contour>
  </outline>
</glyph>
<glyph name="L" format="2">
  <advance width="1024"/>
  <unicode hex="004C"/>
  <anchor x="498" y="-43" name="base"/>
  <anchor x="140" y="1650" name="top"/>
  <outline>
    <contour>
      <point x="53" y="1542" type="line"/>
      <point x="53" y="0" type="line"/>
      <point x="251" y="0" type="line"/>
      <point x="251" y="1542" type="line"/>
    </contour>
    <contour>
      <point x="162" y="202" type="line"/>
      <point x="162" y="0" type="line"/>
      <point x="888" y="0" type="line"/>
      <point x="888" y="202" type="line"/>
    </contour>
  </outline>
</glyph>
<glyph name="e" format="2">
  <advance width="1024"/>
  <unicode hex="0065"/>
  <anchor x="512" y="1166" name="top"/>
  <anchor x="492" y="-96" name="base"/>
  <outline>
    <contour>
      <point x="219" y="1023" type="line"/>
      <point x="219" y="812" type="line"/>
      <point x="854" y="812" type="line"/>
      <point x="854" y="1023" type="line"/>
    </contour>
    <contour>
      <point x="169" y="1023" type="line"/>
      <point x="169" y="0" type="line"/>
      <point x="371" y="0" type="line"/>
      <point x="371" y="1023" type="line"/>
    </contour>
    <contour>
      <point x="271" y="201" type="line"/>
      <point x="271" y="0" type="line"/>
      <point x="853" y="0" type="line"/>
      <point x="853" y="201" type="line"/>
    </contour>
    <contour>
      <point x="239" y="625" type="line"/>
      <point x="239" y="446" type="line"/>
      <point x="829" y="446" type="line"/>
      <point x="829" y="625" type="line"/>
    </contour>
    <contour>
      <point x="657" y="993" type="line"/>
      <point x="657" y="445" type="line"/>
      <point x="852" y="445" type="line"/>
      <point x="852" y="993" type="line"/>
    </contour>
  </outline>
</glyph>
<glyph name="cedilla" format="2">
  <advance width="1024"/>
  <unicode hex="00B8"/>
  <outline>
    <contour>
      <point x="330" y="-5" type="line"/>
      <point x="330" y="-329" type="line"/>
      <point x="486" y="-329" type="line"/>
      <point x="486" y="-5" type="line"/>
    </contour>
    <contour>
      <point x="332" y="-473" type="line"/>
      <point x="332" y="-591" type="line"/>
      <point x="778" y="-591" type="line"/>
      <point x="778" y="-473" type="line"/>
    </contour>
    <contour>
      <point x="626" y="-185" type="line"/>
      <point x="626" y="-557" type="line"/>
      <point x="778" y="-557" type="line"/>
      <point x="778" y="-185" type="line"/>
    </contour>
    <contour>
      <point x="332" y="-185" type="line"/>
      <point x="332" y="-341" type="line"/>
      <point x="778" y="-341" type="line"/>
      <point x="778" y="-185" type="line"/>
    </contour>
  </outline>
</glyph>
<glyph name="ordmasculine" format="2">
  <advance width="1024"/>
  <unicode hex="00BA"/>
  <outline>
    <contour>
      <point x="96" y="1423" type="line"/>
      <point x="96" y="400" type="line"/>
      <point x="296" y="400" type="line"/>
      <point x="296" y="1423" type="line"/>
    </contour>
    <contour>
      <point x="714" y="1423" type="line"/>
      <point x="714" y="400" type="line"/>
      <point x="914" y="400" type="line"/>
      <point x="914" y="1423" type="line"/>
    </contour>
    <contour>
      <point x="157" y="1423" type="line"/>
      <point x="157" y="1223" type="line"/>
      <point x="858" y="1223" type="line"/>
      <point x="858" y="1423" type="line"/>
    </contour>
    <contour>
      <point x="142" y="600" type="line"/>
      <point x="142" y="400" type="line"/>
      <point x="861" y="400" type="line"/>
      <point x="861" y="600" type="line"/>
    </contour>
    <contour>
      <point x="100" y="330" type="line"/>
      <point x="100" y="163" type="line"/>
      <point x="922" y="163" type="line"/>
      <point x="922" y="330" type="line"/>
    </contour>
  </outline>
</glyph>
<glyph name="ae" format="2">
  <advance width="1024"/>
  <unicode hex="00E6"/>
  <anchor x="512" y="-93" name="base"/>
  <anchor x="534" y="1156" name="top"/>
  <anchor x="512" y="-99" name="base"/>
  <outline>
    <contour>
      <point x="48" y="1023" type="line"/>
      <point x="48" y="824" type="line"/>
      <point x="867" y="824" type="line"/>
      <point x="867" y="1023" type="line"/>
    </contour>
    <contour>
      <point x="449" y="1023" type="line"/>
      <point x="449" y="0" type="line"/>
      <point x="643" y="0" type="line"/>
      <point x="643" y="1023" type="line"/>
    </contour>
    <contour>
      <point x="71" y="599" type="line"/>
      <point x="71" y="400" type="line"/>
      <point x="868" y="400" type="line"/>
      <point x="868" y="599" type="line"/>
    </contour>
    <contour>
      <point x="71" y="575" type="line"/>
      <point x="71" y="0" type="line"/>
      <point x="272" y="0" type="line"/>
      <point x="272" y="575" type="line"/>
    </contour>
    <contour>
      <point x="69" y="201" type="line"/>
      <point x="69" y="0" type="line"/>
      <point x="989" y="0" type="line"/>
      <point x="989" y="201" type="line"/>
    </contour>
    <contour>
      <point x="773" y="1023" type="line"/>
      <point x="773" y="400" type="line"/>
      <point x="968" y="400" type="line"/>
      <point x="968" y="1023" type="line"/>
    </contour>
  </outline>
</glyph>
<glyph name="oslash" format="2">
  <advance width="1024"/>
  <unicode hex="00F8"/>
  <anchor x="512" y="-93" name="base"/>
  <anchor x="516" y="1186" name="top"/>
  <anchor x="510" y="-116" name="base"/>
  <outline>
    <contour>
      <point x="837" y="1164" type="line"/>
      <point x="9" y="-5" type="line"/>
      <point x="171" y="-103" type="line"/>
      <point x="1000" y="1066" type="line"/>
    </contour>
    <contour>
      <point x="104" y="1023" type="line"/>
      <point x="104" y="0" type="line"/>
      <point x="304" y="0" type="line"/>
      <point x="304" y="1023" type="line"/>
    </contour>
    <contour>
      <point x="719" y="1023" type="line"/>
      <point x="719" y="0" type="line"/>
      <point x="921" y="0" type="line"/>
      <point x="921" y="1023" type="line"/>
    </contour>
    <contour>
      <point x="227" y="1023" type="line"/>
      <point x="227" y="822" type="line"/>
      <point x="813" y="822" type="line"/>
      <point x="813" y="1023" type="line"/>
    </contour>
    <contour>
      <point x="231" y="200" type="line"/>
      <point x="231" y="0" type="line"/>
      <point x="803" y="0" type="line"/>
      <point x="803" y="200" type="line"/>
    </contour>
  </outline>
</glyph>
<glyph name="Hbar" format="2">
  <advance width="1024"/>
  <unicode hex="0126"/>
  <outline>
    <contour>
      <point x="89" y="1537" type="line"/>
      <point x="89" y="0" type="line"/>
      <point x="289" y="0" type="line"/>
      <point x="289" y="1537" type="line"/>
    </contour>
    <contour>
      <point x="675" y="1537" type="line"/>
      <point x="675" y="0" type="line"/>
      <point x="885" y="0" type="line"/>
      <point x="885" y="1537" type="line"/>
    </contour>
    <contour>
      <point x="209" y="1023" type="line"/>
      <point x="209" y="818" type="line"/>
      <point x="755" y="818" type="line"/>
      <point x="755" y="1023" type="line"/>
    </contour>
    <contour>
      <point x="28" y="1434" type="line"/>
      <point x="28" y="1226" type="line"/>
      <point x="953" y="1226" type="line"/>
      <point x="953" y="1434" type="line"/>
    </contour>
  </outline>
</glyph>
<glyph name="longs" format="2">
  <advance width="1024"/>
  <unicode hex="017F"/>
  <outline>
    <contour>
      <point x="18" y="1221" type="line"/>
      <point x="18" y="1023" type="line"/>
      <point x="269" y="1023" type="line"/>
      <point x="269" y="1221" type="line"/>
    </contour>
    <contour>
      <point x="204" y="1548" type="line"/>
      <point x="204" y="0" type="line"/>
      <point x="410" y="0" type="line"/>
      <point x="410" y="1548" type="line"/>
    </contour>
    <contour>
      <point x="410" y="1548" type="line"/>
      <point x="410" y="1328" type="line"/>
      <point x="805" y="1328" type="line"/>
      <point x="805" y="1548" type="line"/>
    </contour>
  </outline>
</glyph>
<glyph name="uni018F" format="2">
  <advance width="1024"/>
  <unicode hex="018F"/>
  <anchor x="568" y="1630" name="top"/>
  <anchor x="690" y="-117" name="base"/>
  <outline>
    <contour>
      <point x="804" y="0" type="line"/>
      <point x="804" y="200" type="line"/>
      <point x="265" y="200" type="line"/>
      <point x="265" y="0" type="line"/>
    </contour>
    <contour>
      <point x="854" y="0" type="line"/>
      <point x="854" y="1543" type="line"/>
      <point x="652" y="1543" type="line"/>
      <point x="652" y="0" type="line"/>
    </contour>
    <contour>
      <point x="752" y="1342" type="line"/>
      <point x="752" y="1543" type="line"/>
      <point x="170" y="1543" type="line"/>
      <point x="170" y="1342" type="line"/>
    </contour>
    <contour>
      <point x="816" y="668" type="line"/>
      <point x="816" y="868" type="line"/>
      <point x="162" y="868" type="line"/>
      <point x="162" y="668" type="line"/>
    </contour>
    <contour>
      <point x="462" y="30" type="line"/>
      <point x="302" y="869" type="line"/>
      <point x="107" y="869" type="line"/>
      <point x="267" y="30" type="line"/>
    </contour>
  </outline>
</glyph>
<glyph name="uni0192" format="2">
  <advance width="1024"/>
  <unicode hex="0192"/>
  <outline>
    <contour>
      <point x="413" y="1023" type="line"/>
      <point x="413" y="-406" type="line"/>
      <point x="613" y="-406" type="line"/>
      <point x="613" y="1023" type="line"/>
    </contour>
    <contour>
      <point x="475" y="1023" type="line"/>
      <point x="475" y="831" type="line"/>
      <point x="957" y="831" type="line"/>
      <point x="957" y="1023" type="line"/>
    </contour>
    <contour>
      <point x="229" y="559" type="line"/>
      <point x="229" y="356" type="line"/>
      <point x="860" y="356" type="line"/>
      <point x="860" y="559" type="line"/>
    </contour>
    <contour>
      <point x="167" y="-201" type="line"/>
      <point x="167" y="-406" type="line"/>
      <point x="615" y="-406" type="line"/>
      <point x="615" y="-201" type="line"/>
    </contour>
  </outline>
</glyph>
<glyph name="Khook" format="2">
  <advance width="1024"/>
  <unicode hex="0198"/>
  <outline>
    <contour>
      <point x="118" y="1537" type="line"/>
      <point x="118" y="5" type="line"/>
      <point x="319" y="5" type="line"/>
      <point x="319" y="1537" type="line"/>
    </contour>
    <contour>
      <point x="163" y="999" type="line"/>
      <point x="282" y="835" type="line"/>
      <point x="939" y="1529" type="line"/>
      <point x="672" y="1529" type="line"/>
    </contour>
    <contour>
      <point x="293" y="798" type="line"/>
      <point x="156" y="643" type="line"/>
      <point x="711" y="0" type="line"/>
      <point x="992" y="0" type="line"/>
    </contour>
    <contour>
      <point x="1261" y="1729" type="line"/>
      <point x="1138" y="1944" type="line"/>
      <point x="939" y="1830" type="line"/>
      <point x="1063" y="1615" type="line"/>
    </contour>
    <contour>
      <point x="1032" y="1712" type="line"/>
      <point x="940" y="1828" type="line"/>
      <point x="668" y="1523" type="line"/>
      <point x="938" y="1529" type="line"/>
    </contour>
  </outline>
</glyph>
<glyph name="Vhook" format="2">
  <advance width="1024"/>
  <unicode hex="01B2"/>
  <anchor x="525" y="1613" name="top"/>
  <anchor x="536" y="-38" name="base"/>
  <outline>
    <contour>
      <point x="104" y="1529" type="line"/>
      <point x="104" y="0" type="line"/>
      <point x="304" y="0" type="line"/>
      <point x="304" y="1529" type="line"/>
    </contour>
    <contour>
      <point x="719" y="1529" type="line"/>
      <point x="719" y="0" type="line"/>
      <point x="921" y="0" type="line"/>
      <point x="921" y="1529" type="line"/>
    </contour>
    <contour>
      <point x="586" y="1529" type="line"/>
      <point x="586" y="1328" type="line"/>
      <point x="813" y="1328" type="line"/>
      <point x="813" y="1529" type="line"/>
    </contour>
    <contour>
      <point x="231" y="200" type="line"/>
      <point x="231" y="0" type="line"/>
      <point x="803" y="0" type="line"/>
      <point x="803" y="200" type="line"/>
    </contour>
  </outline>
</glyph>
<glyph name="uni02CB" format="2">
  <advance width="1024"/>
  <unicode hex="02CB"/>
  <outline>
    <contour>
      <point x="421" y="1264" type="line"/>
      <point x="541" y="1028" type="line"/>
      <point x="632" y="1074" type="line"/>
      <point x="513" y="1311" type="line"/>
    </contour>
  </outline>
</glyph>
<glyph name="ring" format="2">
  <advance width="1024"/>
  <unicode hex="02DA"/>
  <outline>
    <contour>
      <point x="467" y="1756" type="line"/>
      <point x="615" y="1756" type="line"/>
      <point x="615" y="1626" type="line"/>
      <point x="467" y="1626" type="line"/>
    </contour>
    <contour>
      <point x="362" y="1847" type="line"/>
      <point x="362" y="1537" type="line"/>
      <point x="722" y="1537" type="line"/>
      <point x="722" y="1847" type="line"/>
    </contour>
  </outline>
</glyph>
<glyph name="uni0302" format="2">
  <advance width="0"/>
  <unicode hex="0302"/>
  <anchor x="6" y="778" name="_top"/>
  <outline>
    <contour>
      <point x="89" y="1152" type="line"/>
      <point x="-57" y="1147" type="line"/>
      <point x="-199" y="828" type="line"/>
      <point x="-75" y="787" type="line"/>
    </contour>
    <contour>
      <point x="-56" y="1146" type="line"/>
      <point x="117" y="785" type="line"/>
      <point x="233" y="822" type="line"/>
      <point x="88" y="1153" type="line"/>
    </contour>
  </outline>
</glyph>
<glyph name="uni0304" format="2">
  <advance width="0"/>
  <unicode hex="0304"/>
  <anchor x="-1" y="773" name="_top"/>
  <outline>
    <contour>
      <point x="-299" y="1013" type="line"/>
      <point x="-302" y="862" type="line"/>
      <point x="258" y="862" type="line"/>
      <point x="261" y="1013" type="line"/>
    </contour>
  </outline>
</glyph>
<glyph name="uni030A" format="2">
  <advance width="0"/>
  <unicode hex="030A"/>
  <anchor x="8" y="762" name="_top"/>
  <outline>
    <contour>
      <point x="-72" y="1010" type="line"/>
      <point x="76" y="1010" type="line"/>
      <point x="76" y="880" type="line"/>
      <point x="-72" y="880" type="line"/>
    </contour>
    <contour>
      <point x="-177" y="1101" type="line"/>
      <point x="-177" y="791" type="line"/>
      <point x="183" y="791" type="line"/>
      <point x="183" y="1101" type="line"/>
    </contour>
  </outline>
</glyph>
<glyph name="uni030B" format="2">
  <advance width="0"/>
  <unicode hex="030B"/>
  <anchor x="-5" y="778" name="_top"/>
  <outline>
    <contour>
      <point x="-307" y="784" type="line"/>
      <point x="-163" y="784" type="line"/>
      <point x="-106" y="1032" type="line"/>
      <point x="-250" y="1032" type="line"/>
    </contour>
    <contour>
      <point x="93" y="784" type="line"/>
      <point x="237" y="784" type="line"/>
      <point x="294" y="1032" type="line"/>
      <point x="150" y="1032" type="line"/>
    </contour>
  </outline>
</glyph>
<glyph name="uni030C" format="2">
  <advance width="0"/>
  <unicode hex="030C"/>
  <anchor x="1" y="760" name="_top"/>
  <outline>
    <contour>
      <point x="27" y="810" type="line"/>
      <point x="-79" y="1082" type="line"/>
      <point x="-139" y="1057" type="line"/>
      <point x="-33" y="810" type="line"/>
    </contour>
    <contour>
      <point x="-31" y="858" type="line"/>
      <point x="27" y="810" type="line"/>
      <point x="132" y="1060" type="line"/>
      <point x="72" y="1082" type="line"/>
    </contour>
  </outline>
</glyph>
<glyph name="commareversedabovecomb" format="2">
  <advance width="0"/>
  <unicode hex="0314"/>
  <anchor x="85" y="949" name="_top"/>
  <outline>
    <contour>
      <point x="130" y="1489" type="line"/>
      <point x="-118" y="1489" type="line"/>
      <point x="-118" y="1260" type="line"/>
      <point x="130" y="1260" type="line"/>
    </contour>
    <contour>
      <point x="32" y="1387" type="line"/>
      <point x="-116" y="1252" type="line"/>
      <point x="6" y="1046" type="line"/>
      <point x="150" y="1106" type="line"/>
    </contour>
  </outline>
</glyph>
<glyph name="uni032E" format="2">
  <advance width="0"/>
  <unicode hex="032E"/>
  <anchor x="-8" y="-4" name="_base"/>
  <outline>
    <contour>
      <point x="197" y="-173" type="line"/>
      <point x="197" y="-241" type="line"/>
      <point x="362" y="-173" type="line"/>
      <point x="362" y="-76" type="line"/>
    </contour>
    <contour>
      <point x="-127" y="-173" type="line"/>
      <point x="-127" y="-241" type="line"/>
      <point x="197" y="-241" type="line"/>
      <point x="197" y="-173" type="line"/>
    </contour>
    <contour>
      <point x="-298" y="-91" type="line"/>
      <point x="-298" y="-173" type="line"/>
      <point x="-127" y="-241" type="line"/>
      <point x="-127" y="-173" type="line"/>
    </contour>
  </outline>
</glyph>
<glyph name="tonos" format="2">
  <advance width="1024"/>
  <unicode hex="0384"/>
  <anchor x="-1" y="785" name="_top"/>
  <outline>
    <contour>
      <point x="552" y="1080" type="line"/>
      <point x="297" y="826" type="line"/>
      <point x="470" y="780" type="line"/>
      <point x="727" y="1035" type="line"/>
    </contour>
  </outline>
</glyph>
<glyph name="zeta" format="2">
  <advance width="1024"/>
  <unicode hex="03B6"/>
  <outline>
    <contour>
      <point x="97" y="1548" type="line"/>
      <point x="97" y="1336" type="line"/>
      <point x="931" y="1336" type="line"/>
      <point x="931" y="1548" type="line"/>
    </contour>
    <contour>
      <point x="98" y="504" type="line"/>
      <point x="98" y="292" type="line"/>
      <point x="926" y="142" type="line"/>
      <point x="926" y="354" type="line"/>
    </contour>
    <contour>
      <point x="687" y="1336" type="line"/>
      <point x="98" y="504" type="line"/>
      <point x="305" y="459" type="line"/>
      <point x="931" y="1336" type="line"/>
    </contour>
    <contour>
      <point x="615" y="-130" type="line"/>
      <point x="615" y="-342" type="line"/>
      <point x="926" y="-342" type="line"/>
      <point x="926" y="-130" type="line"/>
    </contour>
    <contour>
      <point x="714" y="-145" type="line"/>
      <point x="926" y="-145" type="line"/>
      <point x="926" y="211" type="line"/>
      <point x="714" y="211" type="line"/>
    </contour>
  </outline>
</glyph>
<glyph name="phi" format="2">
  <advance width="1024"/>
  <unicode hex="03C6"/>
  <outline>
    <contour>
      <point x="104" y="1023" type="line"/>
      <point x="104" y="0" type="line"/>
      <point x="304" y="0" type="line"/>
      <point x="304" y="1023" type="line"/>
    </contour>
    <contour>
      <point x="719" y="1023" type="line"/>
      <point x="719" y="0" type="line"/>
      <point x="921" y="0" type="line"/>
      <point x="921" y="1023" type="line"/>
    </contour>
    <contour>
      <point x="227" y="1023" type="line"/>
      <point x="227" y="822" type="line"/>
      <point x="813" y="822" type="line"/>
      <point x="813" y="1023" type="line"/>
    </contour>
    <contour>
      <point x="231" y="200" type="line"/>
      <point x="231" y="0" type="line"/>
      <point x="803" y="0" type="line"/>
      <point x="803" y="200" type="line"/>
    </contour>
    <contour>
      <point x="411" y="1202" type="line"/>
      <point x="411" y="-413" type="line"/>
      <point x="613" y="-413" type="line"/>
      <point x="613" y="1202" type="line"/>
    </contour>
  </outline>
</glyph>
<glyph name="omega" format="2">
  <advance width="1024"/>
  <unicode hex="03C9"/>
  <outline>
    <contour>
      <point x="150" y="1023" type="line"/>
      <point x="106" y="129" type="line"/>
      <point x="305" y="129" type="line"/>
      <point x="349" y="1023" type="line"/>
    </contour>
    <contour>
      <point x="662" y="1024" type="line"/>
      <point x="722" y="127" type="line"/>
      <point x="921" y="127" type="line"/>
      <point x="861" y="1024" type="line"/>
    </contour>
    <contour>
      <point x="408" y="612" type="line"/>
      <point x="408" y="140" type="line"/>
      <point x="609" y="140" type="line"/>
      <point x="609" y="612" type="line"/>
    </contour>
    <contour>
      <point x="107" y="197" type="line"/>
      <point x="102" y="2" type="line"/>
      <point x="484" y="140" type="line"/>
      <point x="484" y="340" type="line"/>
    </contour>
    <contour>
      <point x="539" y="340" type="line"/>
      <point x="539" y="140" type="line"/>
      <point x="921" y="2" type="line"/>
      <point x="921" y="197" type="line"/>
    </contour>
  </outline>
</glyph>
<glyph name="uni0902" format="2">
  <advance width="0"/>
  <unicode hex="0902"/>
  <anchor x="1" y="1541" name="_abvm_deva"/>
  <outline>
    <contour>
      <point x="-100" y="1839" type="line"/>
      <point x="-100" y="1639" type="line"/>
      <point x="100" y="1639" type="line"/>
      <point x="100" y="1839" type="line"/>
    </contour>
  </outline>
</glyph>
<glyph name="uni0908" format="2">
  <advance width="1024"/>
  <unicode hex="0908"/>
  <anchor x="832" y="1554" name="abvm_deva"/>
  <outline>
    <contour>
      <point x="0" y="1548" type="line"/>
      <point x="0" y="1348" type="line"/>
      <point x="1025" y="1348" type="line"/>
      <point x="1025" y="1548" type="line"/>
    </contour>
    <contour>
      <point x="546" y="1548" type="line"/>
      <point x="546" y="1104" type="line"/>
      <point x="746" y="1104" type="line"/>
      <point x="746" y="1548" type="line"/>
    </contour>
    <contour>
      <point x="165" y="1205" type="line"/>
      <point x="165" y="1004" type="line"/>
      <point x="746" y="1004" type="line"/>
      <point x="746" y="1205" type="line"/>
    </contour>
    <contour>
      <point x="165" y="1181" type="line"/>
      <point x="165" y="738" type="line"/>
      <point x="365" y="738" type="line"/>
      <point x="365" y="1181" type="line"/>
    </contour>
    <contour>
      <point x="165" y="881" type="line"/>
      <point x="165" y="681" type="line"/>
      <point x="760" y="681" type="line"/>
      <point x="760" y="881" type="line"/>
    </contour>
    <contour>
      <point x="657" y="881" type="line"/>
      <point x="657" y="285" type="line"/>
      <point x="838" y="285" type="line"/>
      <point x="838" y="881" type="line"/>
    </contour>
    <contour>
      <point x="143" y="298" type="line"/>
      <point x="143" y="97" type="line"/>
      <point x="841" y="97" type="line"/>
      <point x="841" y="298" type="line"/>
    </contour>
    <contour>
      <point x="259" y="298" type="line"/>
      <point x="259" y="-244" type="line"/>
      <point x="482" y="-244" type="line"/>
      <point x="482" y="298" type="line"/>
    </contour>
    <contour>
      <point x="268" y="1770" type="line"/>
      <point x="515" y="1423" type="line"/>
      <point x="678" y="1537" type="line"/>
      <point x="430" y="1886" type="line"/>
    </contour>
  </outline>
</glyph>
<glyph name="uni0922" format="2">
  <advance width="1024"/>
  <unicode hex="0922"/>
  <anchor x="669" y="1551" name="abvm_deva"/>
  <anchor x="505" y="-65" name="blwm_deva"/>
  <outline>
    <contour>
      <point x="0" y="1548" type="line"/>
      <point x="0" y="1348" type="line"/>
      <point x="1025" y="1348" type="line"/>
      <point x="1025" y="1548" type="line"/>
    </contour>
    <contour>
      <point x="569" y="1537" type="line"/>
      <point x="569" y="988" type="line"/>
      <point x="769" y="988" type="line"/>
      <point x="769" y="1537" type="line"/>
    </contour>
    <contour>
      <point x="769" y="1023" type="line"/>
      <point x="120" y="1023" type="line"/>
      <point x="120" y="822" type="line"/>
      <point x="769" y="822" type="line"/>
    </contour>
    <contour>
      <point x="99" y="1023" type="line"/>
      <point x="99" y="0" type="line"/>
      <point x="299" y="0" type="line"/>
      <point x="299" y="1023" type="line"/>
    </contour>
    <contour>
      <point x="99" y="201" type="line"/>
      <point x="99" y="0" type="line"/>
      <point x="812" y="0" type="line"/>
      <point x="812" y="201" type="line"/>
    </contour>
    <contour>
      <point x="613" y="544" type="line"/>
      <point x="613" y="0" type="line"/>
      <point x="814" y="0" type="line"/>
      <point x="814" y="544" type="line"/>
    </contour>
    <contour>
      <point x="560" y="547" type="line"/>
      <point x="560" y="347" type="line"/>
      <point x="812" y="347" type="line"/>
      <point x="812" y="547" type="line"/>
    </contour>
  </outline>
</glyph>
<glyph name="uni093D" format="2">
  <advance width="1024"/>
  <unicode hex="093D"/>
  <outline>
    <contour>
      <point x="351" y="1264" type="line"/>
      <point x="351" y="1080" type="line"/>
      <point x="876" y="1080" type="line"/>
      <point x="876" y="1264" type="line"/>
    </contour>
    <contour>
      <point x="352" y="1079" type="line"/>
      <point x="656" y="269" type="line"/>
      <point x="846" y="269" type="line"/>
      <point x="553" y="1079" type="line"/>
    </contour>
    <contour>
      <point x="462" y="269" type="line"/>
      <point x="462" y="104" type="line"/>
      <point x="846" y="104" type="line"/>
      <point x="846" y="269" type="line"/>
    </contour>
    <contour>
      <point x="162" y="457" type="line"/>
      <point x="463" y="104" type="line"/>
      <point x="463" y="270" type="line"/>
      <point x="307" y="548" type="line"/>
    </contour>
  </outline>
</glyph>
<glyph name="uni0945" format="2">
  <advance width="0"/>
  <unicode hex="0945"/>
  <anchor x="-68" y="1597" name="_abvm_deva"/>
  <outline>
    <contour>
      <point x="-522" y="2124" type="line"/>
      <point x="-522" y="1639" type="line"/>
      <point x="-320" y="1639" type="line"/>
      <point x="-320" y="2124" type="line"/>
    </contour>
    <contour>
      <point x="-333" y="1841" type="line"/>
      <point x="-333" y="1641" type="line"/>
      <point x="261" y="1641" type="line"/>
      <point x="261" y="1841" type="line"/>
    </contour>
    <contour>
      <point x="225" y="2132" type="line"/>
      <point x="225" y="1641" type="line"/>
      <point x="425" y="1641" type="line"/>
      <point x="425" y="2132" type="line"/>
    </contour>
  </outline>
</glyph>
<glyph name="uni095C" format="2">
  <advance width="1024"/>
  <unicode hex="095C"/>
  <anchor x="884" y="1547" name="abvm_deva"/>
  <anchor x="824" y="-42" name="blwm_deva"/>
  <outline>
    <contour>
      <point x="0" y="1548" type="line"/>
      <point x="0" y="1348" type="line"/>
      <point x="1026" y="1348" type="line"/>
      <point x="1026" y="1548" type="line"/>
    </contour>
    <contour>
      <point x="384" y="1049" type="line"/>
      <point x="384" y="638" type="line"/>
      <point x="583" y="638" type="line"/>
      <point x="583" y="1049" type="line"/>
    </contour>
    <contour>
      <point x="384" y="746" type="line"/>
      <point x="384" y="538" type="line"/>
      <point x="927" y="538" type="line"/>
      <point x="927" y="746" type="line"/>
    </contour>
    <contour>
      <point x="728" y="703" type="line"/>
      <point x="728" y="5" type="line"/>
      <point x="927" y="5" type="line"/>
      <point x="927" y="703" type="line"/>
    </contour>
    <contour>
      <point x="62" y="200" type="line"/>
      <point x="62" y="0" type="line"/>
      <point x="927" y="0" type="line"/>
      <point x="927" y="200" type="line"/>
    </contour>
    <contour>
      <point x="62" y="331" type="line"/>
      <point x="62" y="5" type="line"/>
      <point x="262" y="5" type="line"/>
      <point x="262" y="331" type="line"/>
    </contour>
    <contour>
      <point x="384" y="1134" type="line"/>
      <point x="384" y="926" type="line"/>
      <point x="927" y="926" type="line"/>
      <point x="927" y="1134" type="line"/>
    </contour>
    <contour>
      <point x="728" y="1391" type="line"/>
      <point x="728" y="980" type="line"/>
      <point x="927" y="980" type="line"/>
      <point x="927" y="1391" type="line"/>
    </contour>
    <contour>
      <point x="189" y="-102" type="line"/>
      <point x="189" y="-349" type="line"/>
      <point x="442" y="-349" type="line"/>
      <point x="442" y="-102" type="line"/>
    </contour>
  </outline>
</glyph>
<glyph name="uni095D" format="2">
  <advance width="1024"/>
  <unicode hex="095D"/>
  <anchor x="695" y="1550" name="abvm_deva"/>
  <anchor x="905" y="-81" name="blwm_deva"/>
  <outline>
    <contour>
      <point x="10" y="1548" type="line"/>
      <point x="10" y="1348" type="line"/>
      <point x="1024" y="1348" type="line"/>
      <point x="1024" y="1548" type="line"/>
    </contour>
    <contour>
      <point x="569" y="1528" type="line"/>
      <point x="569" y="988" type="line"/>
      <point x="769" y="988" type="line"/>
      <point x="769" y="1528" type="line"/>
    </contour>
    <contour>
      <point x="769" y="1023" type="line"/>
      <point x="120" y="1023" type="line"/>
      <point x="120" y="822" type="line"/>
      <point x="769" y="822" type="line"/>
    </contour>
    <contour>
      <point x="99" y="1023" type="line"/>
      <point x="99" y="5" type="line"/>
      <point x="299" y="5" type="line"/>
      <point x="299" y="1023" type="line"/>
    </contour>
    <contour>
      <point x="99" y="201" type="line"/>
      <point x="99" y="0" type="line"/>
      <point x="812" y="0" type="line"/>
      <point x="812" y="201" type="line"/>
    </contour>
    <contour>
      <point x="613" y="544" type="line"/>
      <point x="613" y="0" type="line"/>
      <point x="814" y="0" type="line"/>
      <point x="814" y="544" type="line"/>
    </contour>
    <contour>
      <point x="560" y="547" type="line"/>
      <point x="560" y="347" type="line"/>
      <point x="812" y="347" type="line"/>
      <point x="812" y="547" type="line"/>
    </contour>
    <contour>
      <point x="101" y="-47" type="line"/>
      <point x="101" y="-294" type="line"/>
      <point x="365" y="-294" type="line"/>
      <point x="365" y="-47" type="line"/>
    </contour>
  </outline>
</glyph>
<glyph name="uni0968" format="2">
  <advance width="1024"/>
  <unicode hex="0968"/>
  <outline>
    <contour>
      <point x="177" y="1275" type="line"/>
      <point x="177" y="1076" type="line"/>
      <point x="817" y="1076" type="line"/>
      <point x="817" y="1275" type="line"/>
    </contour>
    <contour>
      <point x="669" y="1274" type="line"/>
      <point x="669" y="497" type="line"/>
      <point x="869" y="497" type="line"/>
      <point x="869" y="1274" type="line"/>
    </contour>
    <contour>
      <point x="224" y="687" type="line"/>
      <point x="224" y="488" type="line"/>
      <point x="869" y="488" type="line"/>
      <point x="869" y="687" type="line"/>
    </contour>
    <contour>
      <point x="221" y="486" type="line"/>
      <point x="777" y="0" type="line"/>
      <point x="972" y="68" type="line"/>
      <point x="359" y="583" type="line"/>
    </contour>
    <contour>
      <point x="172" y="1275" type="line"/>
      <point x="172" y="913" type="line"/>
      <point x="372" y="913" type="line"/>
      <point x="372" y="1275" type="line"/>
    </contour>
  </outline>
</glyph>
<glyph name="uni096A" format="2">
  <advance width="1024"/>
  <unicode hex="096A"/>
  <outline>
    <contour>
      <point x="736" y="970" type="line"/>
      <point x="158" y="317" type="line"/>
      <point x="358" y="317" type="line"/>
      <point x="935" y="970" type="line"/>
    </contour>
    <contour>
      <point x="161" y="963" type="line"/>
      <point x="717" y="316" type="line"/>
      <point x="916" y="316" type="line"/>
      <point x="359" y="963" type="line"/>
    </contour>
    <contour>
      <point x="158" y="230" type="line"/>
      <point x="158" y="28" type="line"/>
      <point x="917" y="28" type="line"/>
      <point x="917" y="230" type="line"/>
    </contour>
    <contour>
      <point x="158" y="317" type="line"/>
      <point x="158" y="95" type="line"/>
      <point x="358" y="95" type="line"/>
      <point x="358" y="317" type="line"/>
    </contour>
    <contour>
      <point x="717" y="317" type="line"/>
      <point x="717" y="95" type="line"/>
      <point x="917" y="95" type="line"/>
      <point x="917" y="317" type="line"/>
    </contour>
    <contour>
      <point x="161" y="1169" type="line"/>
      <point x="161" y="963" type="line"/>
      <point x="362" y="963" type="line"/>
      <point x="362" y="1169" type="line"/>
    </contour>
    <contour>
      <point x="735" y="1171" type="line"/>
      <point x="735" y="970" type="line"/>
      <point x="935" y="970" type="line"/>
      <point x="935" y="1171" type="line"/>
    </contour>
  </outline>
</glyph>
<glyph name="uni0B87" format="2">
  <advance width="1024"/>
  <unicode hex="0B87"/>
  <outline>
    <contour>
      <point x="337" y="1063" type="line"/>
      <point x="333" y="863" type="line"/>
      <point x="705" y="863" type="line"/>
      <point x="712" y="1058" type="line"/>
    </contour>
    <contour>
      <point x="538" y="1062" type="line"/>
      <point x="339" y="57" type="line"/>
      <point x="539" y="53" type="line"/>
      <point x="738" y="1058" type="line"/>
    </contour>
    <contour>
      <point x="539" y="53" type="line"/>
      <point x="339" y="57" type="line"/>
      <point x="11" y="-410" type="line"/>
      <point x="211" y="-410" type="line"/>
    </contour>
    <contour>
      <point x="297" y="1065" type="line"/>
      <point x="233" y="789" type="line"/>
      <point x="434" y="781" type="line"/>
      <point x="498" y="1063" type="line"/>
    </contour>
    <contour>
      <point x="211" y="-410" type="line"/>
      <point x="210" y="212" type="line"/>
      <point x="10" y="212" type="line"/>
      <point x="11" y="-410" type="line"/>
    </contour>
    <contour>
      <point x="9" y="212" type="line"/>
      <point x="9" y="12" type="line"/>
      <point x="764" y="16" type="line"/>
      <point x="764" y="216" type="line"/>
    </contour>
    <contour>
      <point x="564" y="141" type="line"/>
      <point x="573" y="-407" type="line"/>
      <point x="773" y="-411" type="line"/>
      <point x="764" y="137" type="line"/>
    </contour>
    <contour>
      <point x="571" y="-407" type="line"/>
      <point x="773" y="-409" type="line"/>
      <point x="214" y="439" type="line"/>
      <point x="15" y="439" type="line"/>
    </contour>
    <contour>
      <point x="15" y="439" type="line"/>
      <point x="215" y="439" type="line"/>
      <point x="215" y="1548" type="line"/>
      <point x="15" y="1548" type="line"/>
    </contour>
    <contour>
      <point x="15" y="1548" type="line"/>
      <point x="14" y="1330" type="line"/>
      <point x="1005" y="1331" type="line"/>
      <point x="1004" y="1548" type="line"/>
    </contour>
    <contour>
      <point x="812" y="1548" type="line"/>
      <point x="806" y="-410" type="line"/>
      <point x="1014" y="-410" type="line"/>
      <point x="1014" y="1547" type="line"/>
    </contour>
    <contour>
      <point x="314" y="861" type="line"/>
      <point x="397" y="860" type="line"/>
      <point x="373" y="804" type="line"/>
      <point x="290" y="805" type="line"/>
    </contour>
  </outline>
</glyph>
<glyph name="uni0B8A" format="2">
  <advance width="1024"/>
  <unicode hex="0B8A"/>
  <outline>
    <contour>
      <point x="3" y="1082" type="line"/>
      <point x="3" y="849" type="line"/>
      <point x="203" y="849" type="line"/>
      <point x="203" y="1082" type="line"/>
    </contour>
    <contour>
      <point x="3" y="1023" type="line"/>
      <point x="292" y="1023" type="line"/>
      <point x="292" y="1223" type="line"/>
      <point x="3" y="1223" type="line"/>
    </contour>
    <contour>
      <point x="226" y="1223" type="line"/>
      <point x="226" y="509" type="line"/>
      <point x="426" y="509" type="line"/>
      <point x="426" y="1223" type="line"/>
    </contour>
    <contour>
      <point x="22" y="656" type="line"/>
      <point x="22" y="456" type="line"/>
      <point x="426" y="456" type="line"/>
      <point x="426" y="656" type="line"/>
    </contour>
    <contour>
      <point x="22" y="595" type="line"/>
      <point x="22" y="73" type="line"/>
      <point x="222" y="73" type="line"/>
      <point x="222" y="595" type="line"/>
    </contour>
    <contour>
      <point x="22" y="201" type="line"/>
      <point x="22" y="1" type="line"/>
      <point x="1004" y="1" type="line"/>
      <point x="1004" y="201" type="line"/>
    </contour>
    <contour>
      <point x="838" y="1223" type="line"/>
      <point x="838" y="249" type="line"/>
      <point x="1019" y="249" type="line"/>
      <point x="1019" y="1223" type="line"/>
    </contour>
    <contour>
      <point x="641" y="1223" type="line"/>
      <point x="641" y="249" type="line"/>
      <point x="788" y="249" type="line"/>
      <point x="788" y="1223" type="line"/>
    </contour>
    <contour>
      <point x="771" y="1023" type="line"/>
      <point x="1029" y="1023" type="line"/>
      <point x="1029" y="1223" type="line"/>
      <point x="771" y="1223" type="line"/>
    </contour>
    <contour>
      <point x="434" y="1217" type="line"/>
      <point x="447" y="329" type="line"/>
      <point x="569" y="327" type="line"/>
      <point x="553" y="1176" type="line"/>
    </contour>
    <contour>
      <point x="473" y="1206" type="line"/>
      <point x="474" y="988" type="line"/>
      <point x="668" y="988" type="line"/>
      <point x="668" y="1157" type="line"/>
    </contour>
    <contour>
      <point x="59" y="1024" type="line"/>
      <point x="134" y="1024" type="line"/>
      <point x="134" y="903" type="line"/>
      <point x="59" y="903" type="line"/>
    </contour>
    <contour>
      <point x="569" y="468" type="line"/>
      <point x="600" y="469" type="line"/>
      <point x="600" y="346" type="line"/>
      <point x="570" y="345" type="line"/>
    </contour>
    <contour>
      <point x="565" y="487" type="line"/>
      <point x="567" y="327" type="line"/>
      <point x="630" y="329" type="line"/>
      <point x="630" y="490" type="line"/>
    </contour>
  </outline>
</glyph>
<glyph name="uni0B95" format="2">
  <advance width="1024"/>
  <unicode hex="0B95"/>
  <anchor x="613" y="1248" name="abvm_taml"/>
  <outline>
    <contour>
      <point x="204" y="1222" type="line"/>
      <point x="204" y="1022" type="line"/>
      <point x="957" y="1022" type="line"/>
      <point x="957" y="1222" type="line"/>
    </contour>
    <contour>
      <point x="205" y="1192" type="line"/>
      <point x="205" y="651" type="line"/>
      <point x="405" y="651" type="line"/>
      <point x="405" y="1192" type="line"/>
    </contour>
    <contour>
      <point x="498" y="1192" type="line"/>
      <point x="498" y="0" type="line"/>
      <point x="698" y="0" type="line"/>
      <point x="698" y="1192" type="line"/>
    </contour>
    <contour>
      <point x="144" y="200" type="line"/>
      <point x="144" y="0" type="line"/>
      <point x="697" y="0" type="line"/>
      <point x="697" y="200" type="line"/>
    </contour>
    <contour>
      <point x="73" y="621" type="line"/>
      <point x="73" y="0" type="line"/>
      <point x="273" y="0" type="line"/>
      <point x="273" y="621" type="line"/>
    </contour>
    <contour>
      <point x="73" y="653" type="line"/>
      <point x="73" y="453" type="line"/>
      <point x="888" y="453" type="line"/>
      <point x="888" y="653" type="line"/>
    </contour>
    <contour>
      <point x="796" y="653" type="line"/>
      <point x="796" y="87" type="line"/>
      <point x="996" y="87" type="line"/>
      <point x="996" y="653" type="line"/>
    </contour>
    <contour>
      <point x="743" y="200" type="line"/>
      <point x="743" y="0" type="line"/>
      <point x="996" y="0" type="line"/>
      <point x="996" y="200" type="line"/>
    </contour>
  </outline>
</glyph>
<glyph name="uni0BA3" format="2">
  <advance width="1024"/>
  <unicode hex="0BA3"/>
  <outline>
    <contour>
      <point x="9" y="1222" type="line"/>
      <point x="9" y="1022" type="line"/>
      <point x="1019" y="1023" type="line"/>
      <point x="1019" y="1223" type="line"/>
    </contour>
    <contour>
      <point x="800" y="1186" type="line"/>
      <point x="800" y="0" type="line"/>
      <point x="1000" y="0" type="line"/>
      <point x="1000" y="1186" type="line"/>
    </contour>
    <contour>
      <point x="559" y="1188" type="line"/>
      <point x="559" y="0" type="line"/>
      <point x="759" y="0" type="line"/>
      <point x="759" y="1188" type="line"/>
    </contour>
    <contour>
      <point x="318" y="1186" type="line"/>
      <point x="318" y="0" type="line"/>
      <point x="518" y="0" type="line"/>
      <point x="518" y="1186" type="line"/>
    </contour>
    <contour>
      <point x="10" y="1188" type="line"/>
      <point x="10" y="0" type="line"/>
      <point x="210" y="0" type="line"/>
      <point x="210" y="1188" type="line"/>
    </contour>
    <contour>
      <point x="209" y="149" type="line"/>
      <point x="209" y="0" type="line"/>
      <point x="277" y="0" type="line"/>
      <point x="277" y="149" type="line"/>
    </contour>
    <contour>
      <point x="218" y="108" type="line"/>
      <point x="243" y="108" type="line"/>
      <point x="243" y="44" type="line"/>
      <point x="218" y="44" type="line"/>
    </contour>
  </outline>
</glyph>
<glyph name="uni0BB3" format="2">
  <advance width="1024"/>
  <unicode hex="0BB3"/>
  <outline>
    <contour>
      <point x="761" y="1229" type="line"/>
      <point x="761" y="0" type="line"/>
      <point x="960" y="0" type="line"/>
      <point x="960" y="1232" type="line"/>
    </contour>
    <contour>
      <point x="465" y="1229" type="line"/>
      <point x="465" y="0" type="line"/>
      <point x="665" y="0" type="line"/>
      <point x="665" y="1232" type="line"/>
    </contour>
    <contour>
      <point x="610" y="1032" type="line"/>
      <point x="929" y="1032" type="line"/>
      <point x="929" y="1232" type="line"/>
      <point x="610" y="1232" type="line"/>
    </contour>
    <contour>
      <point x="61" y="1138" type="line"/>
      <point x="76" y="0" type="line"/>
      <point x="278" y="0" type="line"/>
      <point x="258" y="1195" type="line"/>
    </contour>
    <contour>
      <point x="258" y="1195" type="line"/>
      <point x="261" y="977" type="line"/>
      <point x="484" y="960" type="line"/>
      <point x="484" y="1087" type="line"/>
    </contour>
    <contour>
      <point x="276" y="163" type="line"/>
      <point x="338" y="162" type="line"/>
      <point x="338" y="94" type="line"/>
      <point x="278" y="95" type="line"/>
    </contour>
    <contour>
      <point x="267" y="243" type="line"/>
      <point x="270" y="0" type="line"/>
      <point x="412" y="0" type="line"/>
      <point x="411" y="242" type="line"/>
    </contour>
  </outline>
</glyph>
<glyph name="uni0BC0" format="2">
  <advance width="0"/>
  <unicode hex="0BC0"/>
  <anchor x="-1" y="1017" name="_abvm_taml"/>
  <outline>
    <contour>
      <point x="-494" y="1506" type="line"/>
      <point x="-106" y="1021" type="line"/>
      <point x="142" y="1019" type="line"/>
      <point x="-340" y="1634" type="line"/>
    </contour>
    <contour>
      <point x="-503" y="1517" type="line"/>
      <point x="-375" y="1363" type="line"/>
      <point x="324" y="1945" type="line"/>
      <point x="196" y="2099" type="line"/>
    </contour>
    <contour>
      <point x="-85" y="1865" type="line"/>
      <point x="229" y="1487" type="line"/>
      <point x="519" y="1729" type="line"/>
      <point x="205" y="2106" type="line"/>
    </contour>
    <contour>
      <point x="112" y="1749" type="line"/>
      <point x="282" y="1891" type="line"/>
      <point x="369" y="1786" type="line"/>
      <point x="199" y="1644" type="line"/>
    </contour>
  </outline>
</glyph>
<glyph name="uni0BC7" format="2">
  <advance width="1024"/>
  <unicode hex="0BC7"/>
  <outline>
    <contour>
      <point x="395" y="1524" type="line"/>
      <point x="395" y="-13" type="line"/>
      <point x="595" y="-13" type="line"/>
      <point x="595" y="1524" type="line"/>
    </contour>
    <contour>
      <point x="595" y="315" type="line"/>
      <point x="595" y="-13" type="line"/>
      <point x="808" y="-13" type="line"/>
      <point x="808" y="315" type="line"/>
    </contour>
    <contour>
      <point x="604" y="223" type="line"/>
      <point x="699" y="223" type="line"/>
      <point x="699" y="79" type="line"/>
      <point x="604" y="79" type="line"/>
    </contour>
    <contour>
      <point x="595" y="1524" type="line"/>
      <point x="595" y="1196" type="line"/>
      <point x="808" y="1196" type="line"/>
      <point x="808" y="1524" type="line"/>
    </contour>
    <contour>
      <point x="604" y="1432" type="line"/>
      <point x="699" y="1432" type="line"/>
      <point x="699" y="1288" type="line"/>
      <point x="604" y="1288" type="line"/>
    </contour>
  </outline>
</glyph>
<glyph name="uni0BCD" format="2">
  <advance width="0"/>
  <unicode hex="0BCD"/>
  <anchor x="2" y="1064" name="_abvm_taml"/>
  <outline>
    <contour>
      <point x="-1039" y="1638" type="line"/>
      <point x="-1039" y="1243" type="line"/>
      <point x="-644" y="1243" type="line"/>
      <point x="-644" y="1638" type="line"/>
    </contour>
  </outline>
</glyph>
<glyph name="uni0BEB" format="2">
  <advance width="1024"/>
  <unicode hex="0BEB"/>
  <outline>
    <contour>
      <point x="256" y="1221" type="line"/>
      <point x="256" y="0" type="line"/>
      <point x="456" y="0" type="line"/>
      <point x="456" y="1221" type="line"/>
    </contour>
    <contour>
      <point x="255" y="1223" type="line"/>
      <point x="255" y="1023" type="line"/>
      <point x="816" y="1023" type="line"/>
      <point x="816" y="1223" type="line"/>
    </contour>
    <contour>
      <point x="510" y="1221" type="line"/>
      <point x="510" y="0" type="line"/>
      <point x="710" y="0" type="line"/>
      <point x="710" y="1221" type="line"/>
    </contour>
    <contour>
      <point x="14" y="1530" type="line"/>
      <point x="14" y="-387" type="line"/>
      <point x="214" y="-387" type="line"/>
      <point x="214" y="1530" type="line"/>
    </contour>
    <contour>
      <point x="14" y="-209" type="line"/>
      <point x="14" y="-409" type="line"/>
      <point x="1008" y="-409" type="line"/>
      <point x="1008" y="-209" type="line"/>
    </contour>
    <contour>
      <point x="19" y="1576" type="line"/>
      <point x="18" y="1376" type="line"/>
      <point x="987" y="1376" type="line"/>
      <point x="988" y="1576" type="line"/>
    </contour>
    <contour>
      <point x="820" y="1576" type="line"/>
      <point x="820" y="1270" type="line"/>
      <point x="1020" y="1270" type="line"/>
      <point x="1020" y="1576" type="line"/>
    </contour>
    <contour>
      <point x="808" y="615" type="line"/>
      <point x="808" y="-403" type="line"/>
      <point x="1008" y="-403" type="line"/>
      <point x="1008" y="615" type="line"/>
    </contour>
    <contour>
      <point x="697" y="566" type="line"/>
      <point x="697" y="366" type="line"/>
      <point x="808" y="415" type="line"/>
      <point x="808" y="615" type="line"/>
    </contour>
  </outline>
</glyph>
<glyph name="uni0BF0" format="2">
  <advance width="1024"/>
  <unicode hex="0BF0"/>
  <outline>
    <contour>
      <point x="49" y="1220" type="line"/>
      <point x="49" y="0" type="line"/>
      <point x="249" y="0" type="line"/>
      <point x="249" y="1220" type="line"/>
    </contour>
    <contour>
      <point x="419" y="1225" type="line"/>
      <point x="419" y="97" type="line"/>
      <point x="619" y="97" type="line"/>
      <point x="619" y="1225" type="line"/>
    </contour>
    <contour>
      <point x="789" y="1590" type="line"/>
      <point x="789" y="0" type="line"/>
      <point x="989" y="0" type="line"/>
      <point x="989" y="1590" type="line"/>
    </contour>
    <contour>
      <point x="188" y="1517" type="line"/>
      <point x="188" y="1317" type="line"/>
      <point x="989" y="1432" type="line"/>
      <point x="989" y="1632" type="line"/>
    </contour>
    <contour>
      <point x="248" y="200" type="line"/>
      <point x="248" y="0" type="line"/>
      <point x="419" y="97" type="line"/>
      <point x="419" y="297" type="line"/>
    </contour>
    <contour>
      <point x="619" y="297" type="line"/>
      <point x="619" y="97" type="line"/>
      <point x="789" y="0" type="line"/>
      <point x="789" y="200" type="line"/>
    </contour>
  </outline>
</glyph>
<glyph name="uni0BF2" format="2">
  <advance width="1024"/>
  <unicode hex="0BF2"/>
  <outline>
    <contour>
      <point x="160" y="1221" type="line"/>
      <point x="160" y="1021" type="line"/>
      <point x="957" y="1021" type="line"/>
      <point x="957" y="1221" type="line"/>
    </contour>
    <contour>
      <point x="75" y="1221" type="line"/>
      <point x="75" y="651" type="line"/>
      <point x="275" y="651" type="line"/>
      <point x="275" y="1221" type="line"/>
    </contour>
    <contour>
      <point x="331" y="1221" type="line"/>
      <point x="331" y="0" type="line"/>
      <point x="531" y="0" type="line"/>
      <point x="531" y="1221" type="line"/>
    </contour>
    <contour>
      <point x="48" y="200" type="line"/>
      <point x="48" y="0" type="line"/>
      <point x="529" y="0" type="line"/>
      <point x="529" y="200" type="line"/>
    </contour>
    <contour>
      <point x="24" y="621" type="line"/>
      <point x="24" y="0" type="line"/>
      <point x="224" y="0" type="line"/>
      <point x="229" y="625" type="line"/>
    </contour>
    <contour>
      <point x="24" y="653" type="line"/>
      <point x="24" y="453" type="line"/>
      <point x="1006" y="453" type="line"/>
      <point x="1006" y="653" type="line"/>
    </contour>
    <contour>
      <point x="560" y="646" type="line"/>
      <point x="560" y="137" type="line"/>
      <point x="760" y="137" type="line"/>
      <point x="760" y="646" type="line"/>
    </contour>
    <contour>
      <point x="160" y="-110" type="line"/>
      <point x="160" y="-310" type="line"/>
      <point x="1006" y="-319" type="line"/>
      <point x="1006" y="-119" type="line"/>
    </contour>
    <contour>
      <point x="145" y="-112" type="line"/>
      <point x="145" y="-422" type="line"/>
      <point x="345" y="-422" type="line"/>
      <point x="345" y="-112" type="line"/>
    </contour>
    <contour>
      <point x="760" y="337" type="line"/>
      <point x="760" y="137" type="line"/>
      <point x="807" y="191" type="line"/>
      <point x="807" y="391" type="line"/>
    </contour>
    <contour>
      <point x="807" y="391" type="line"/>
      <point x="807" y="-121" type="line"/>
      <point x="1007" y="-121" type="line"/>
      <point x="1007" y="391" type="line"/>
    </contour>
  </outline>
</glyph>
<glyph name="daggerdbl" format="2">
  <advance width="1024"/>
  <unicode hex="2021"/>
  <outline>
    <contour>
      <point x="166" y="937" type="line"/>
      <point x="166" y="772" type="line"/>
      <point x="772" y="772" type="line"/>
      <point x="772" y="937" type="line"/>
    </contour>
    <contour>
      <point x="166" y="1251" type="line"/>
      <point x="166" y="1086" type="line"/>
      <point x="772" y="1086" type="line"/>
      <point x="772" y="1251" type="line"/>
    </contour>
    <contour>
      <point x="390" y="1548" type="line"/>
      <point x="390" y="0" type="line"/>
      <point x="535" y="0" type="line"/>
      <point x="535" y="1548" type="line"/>
    </contour>
  </outline>
</glyph>
<glyph name="perthousand" format="2">
  <advance width="1024"/>
  <unicode hex="2030"/>
  <outline>
    <contour>
      <point x="632" y="436" type="line"/>
      <point x="632" y="110" type="line"/>
      <point x="710" y="110" type="line"/>
      <point x="710" y="436" type="line"/>
    </contour>
    <contour>
      <point x="632" y="440" type="line"/>
      <point x="632" y="345" type="line"/>
      <point x="978" y="345" type="line"/>
      <point x="978" y="440" type="line"/>
    </contour>
    <contour>
      <point x="632" y="159" type="line"/>
      <point x="632" y="77" type="line"/>
      <point x="976" y="77" type="line"/>
      <point x="976" y="159" type="line"/>
    </contour>
    <contour>
      <point x="886" y="440" type="line"/>
      <point x="886" y="79" type="line"/>
      <point x="978" y="79" type="line"/>
      <point x="978" y="440" type="line"/>
    </contour>
    <contour>
      <point x="-14" y="522" type="line"/>
      <point x="28" y="377" type="line"/>
      <point x="852" y="716" type="line"/>
      <point x="808" y="860" type="line"/>
    </contour>
    <contour>
      <point x="126" y="1148" type="line"/>
      <point x="126" y="822" type="line"/>
      <point x="204" y="822" type="line"/>
      <point x="204" y="1148" type="line"/>
    </contour>
    <contour>
      <point x="126" y="1152" type="line"/>
      <point x="126" y="1057" type="line"/>
      <point x="472" y="1057" type="line"/>
      <point x="472" y="1152" type="line"/>
    </contour>
    <contour>
      <point x="126" y="871" type="line"/>
      <point x="126" y="789" type="line"/>
      <point x="470" y="789" type="line"/>
      <point x="470" y="871" type="line"/>
    </contour>
    <contour>
      <point x="380" y="1152" type="line"/>
      <point x="380" y="791" type="line"/>
      <point x="472" y="791" type="line"/>
      <point x="472" y="1152" type="line"/>
    </contour>
    <contour>
      <point x="230" y="436" type="line"/>
      <point x="230" y="110" type="line"/>
      <point x="308" y="110" type="line"/>
      <point x="308" y="436" type="line"/>
    </contour>
    <contour>
      <point x="230" y="440" type="line"/>
      <point x="230" y="345" type="line"/>
      <point x="578" y="345" type="line"/>
      <point x="578" y="440" type="line"/>
    </contour>
    <contour>
      <point x="230" y="159" type="line"/>
      <point x="230" y="77" type="line"/>
      <point x="574" y="77" type="line"/>
      <point x="574" y="159" type="line"/>
    </contour>
    <contour>
      <point x="486" y="440" type="line"/>
      <point x="486" y="79" type="line"/>
      <point x="578" y="79" type="line"/>
      <point x="578" y="440" type="line"/>
    </contour>
  </outline>
</glyph>
<glyph name="uni20B5" format="2">
  <advance width="1024"/>
  <unicode hex="20B5"/>
  <outline>
    <contour>
      <point x="431" y="1635" type="line"/>
      <point x="431" y="-120" type="line"/>
      <point x="551" y="-120" type="line"/>
      <point x="551" y="1635" type="line"/>
    </contour>
    <contour>
      <point x="71" y="1537" type="line"/>
      <point x="71" y="0" type="line"/>
      <point x="271" y="0" type="line"/>
      <point x="271" y="1537" type="line"/>
    </contour>
    <contour>
      <point x="170" y="1537" type="line"/>
      <point x="170" y="1338" type="line"/>
      <point x="953" y="1338" type="line"/>
      <point x="953" y="1537" type="line"/>
    </contour>
    <contour>
      <point x="156" y="199" type="line"/>
      <point x="156" y="0" type="line"/>
      <point x="951" y="0" type="line"/>
      <point x="951" y="199" type="line"/>
    </contour>
  </outline>
</glyph>
<glyph name="southEastArrow" format="2">
  <advance width="1024"/>
  <unicode hex="2198"/>
  <outline>
    <contour>
      <point x="659" y="449" type="line"/>
      <point x="808" y="598" type="line"/>
      <point x="282" y="1125" type="line"/>
      <point x="133" y="975" type="line"/>
    </contour>
    <contour>
      <point x="406" y="389" type="line"/>
      <point x="799" y="465" type="line"/>
      <point x="628" y="637" type="line"/>
      <point x="235" y="560" type="line"/>
    </contour>
    <contour>
      <point x="799" y="465" type="line"/>
      <point x="863" y="873" type="line"/>
      <point x="692" y="1044" type="line"/>
      <point x="627" y="637" type="line"/>
    </contour>
  </outline>
</glyph>
<glyph name="lessequal" format="2">
  <advance width="1024"/>
  <unicode hex="2264"/>
  <outline>
    <contour>
      <point x="-5" y="-5" type="line"/>
      <point x="-5" y="-157" type="line"/>
      <point x="1019" y="-157" type="line"/>
      <point x="1019" y="-5" type="line"/>
    </contour>
    <contour>
      <point x="103" y="777" type="line"/>
      <point x="103" y="569" type="line"/>
      <point x="921" y="807" type="line"/>
      <point x="921" y="1013" type="line"/>
    </contour>
    <contour>
      <point x="103" y="777" type="line"/>
      <point x="103" y="569" type="line"/>
      <point x="919" y="122" type="line"/>
      <point x="919" y="319" type="line"/>
    </contour>
  </outline>
</glyph>
<glyph name="greaterequal" format="2">
  <advance width="1024"/>
  <unicode hex="2265"/>
  <outline>
    <contour>
      <point x="-5" y="-5" type="line"/>
      <point x="-5" y="-157" type="line"/>
      <point x="1019" y="-157" type="line"/>
      <point x="1019" y="-5" type="line"/>
    </contour>
    <contour>
      <point x="922" y="777" type="line"/>
      <point x="100" y="1013" type="line"/>
      <point x="100" y="807" type="line"/>
      <point x="924" y="568" type="line"/>
    </contour>
    <contour>
      <point x="922" y="777" type="line"/>
      <point x="102" y="319" type="line"/>
      <point x="102" y="122" type="line"/>
      <point x="924" y="568" type="line"/>
    </contour>
  </outline>
</glyph>
<glyph name="rightBlackTriangle" format="2">
  <advance width="1024"/>
  <unicode hex="25B6"/>
  <outline>
    <contour>
      <point x="857" y="677" type="line"/>
      <point x="169" y="1077" type="line"/>
      <point x="165" y="269" type="line"/>
    </contour>
  </outline>
</glyph>
<glyph name="rightWhiteTriangle" format="2">
  <advance width="1024"/>
  <unicode hex="25B7"/>
  <outline>
    <contour>
      <point x="857" y="677" type="line"/>
      <point x="169" y="1077" type="line"/>
      <point x="165" y="269" type="line"/>
    </contour>
    <contour>
      <point x="761" y="676" type="line"/>
      <point x="207" y="350" type="line"/>
      <point x="210" y="996" type="line"/>
    </contour>
  </outline>
</glyph>
<glyph name="uni25CC" format="2">
  <advance width="1024"/>
  <unicode hex="25CC"/>
  <anchor x="742" y="67" name="blwm_deva"/>
  <anchor x="506" y="1246" name="top"/>
  <anchor x="548" y="70" name="base"/>
  <anchor x="697" y="1317" name="abvm_deva"/>
  <outline>
    <contour>
      <point x="454" y="1065" type="line"/>
      <point x="454" y="926" type="line"/>
      <point x="576" y="926" type="line"/>
      <point x="576" y="1065" type="line"/>
    </contour>
    <contour>
      <point x="719" y="953" type="line"/>
      <point x="719" y="814" type="line"/>
      <point x="841" y="814" type="line"/>
      <point x="841" y="953" type="line"/>
    </contour>
    <contour>
      <point x="193" y="957" type="line"/>
      <point x="193" y="818" type="line"/>
      <point x="315" y="818" type="line"/>
      <point x="315" y="957" type="line"/>
    </contour>
    <contour>
      <point x="813" y="709" type="line"/>
      <point x="813" y="570" type="line"/>
      <point x="935" y="570" type="line"/>
      <point x="935" y="709" type="line"/>
    </contour>
    <contour>
      <point x="722" y="438" type="line"/>
      <point x="722" y="299" type="line"/>
      <point x="844" y="299" type="line"/>
      <point x="844" y="438" type="line"/>
    </contour>
    <contour>
      <point x="105" y="713" type="line"/>
      <point x="105" y="574" type="line"/>
      <point x="227" y="574" type="line"/>
      <point x="227" y="713" type="line"/>
    </contour>
    <contour>
      <point x="461" y="371" type="line"/>
      <point x="461" y="232" type="line"/>
      <point x="583" y="232" type="line"/>
      <point x="583" y="371" type="line"/>
    </contour>
    <contour>
      <point x="193" y="455" type="line"/>
      <point x="193" y="316" type="line"/>
      <point x="315" y="316" type="line"/>
      <point x="315" y="455" type="line"/>
    </contour>
  </outline>
</glyph>
<glyph name="uniFB01" format="2">
  <advance width="1024"/>
  <unicode hex="FB01"/>
  <outline>
    <contour>
      <point x="220" y="1543" type="line"/>
      <point x="220" y="-4" type="line"/>
      <point x="419" y="-4" type="line"/>
      <point x="419" y="1543" type="line"/>
    </contour>
    <contour>
      <point x="225" y="1545" type="line"/>
      <point x="224" y="1343" type="line"/>
      <point x="806" y="1343" type="line"/>
      <point x="807" y="1545" type="line"/>
    </contour>
    <contour>
      <point x="608" y="1014" type="line"/>
      <point x="608" y="52" type="line"/>
      <point x="807" y="52" type="line"/>
      <point x="807" y="1014" type="line"/>
    </contour>
    <contour>
      <point x="479" y="199" type="line"/>
      <point x="480" y="0" type="line"/>
      <point x="936" y="0" type="line"/>
      <point x="935" y="199" type="line"/>
    </contour>
    <contour>
      <point x="103" y="1014" type="line"/>
      <point x="104" y="814" type="line"/>
      <point x="625" y="814" type="line"/>
      <point x="624" y="1014" type="line"/>
    </contour>
  </outline>
</glyph>
<glyph name="uni0919_uni094D.haln" format="2">
  <advance width="1024"/>
  <anchor x="839" y="1617" name="abvm_deva"/>
  <anchor x="807" y="-42" name="blwm_deva"/>
  <outline>
    <contour>
      <point x="0" y="1548" type="line"/>
      <point x="0" y="1350" type="line"/>
      <point x="1025" y="1350" type="line"/>
      <point x="1027" y="1548" type="line"/>
    </contour>
    <contour>
      <point x="511" y="1537" type="line"/>
      <point x="505" y="1023" type="line"/>
      <point x="705" y="1023" type="line"/>
      <point x="711" y="1537" type="line"/>
    </contour>
    <contour>
      <point x="699" y="1226" type="line"/>
      <point x="225" y="1226" type="line"/>
      <point x="222" y="1023" type="line"/>
      <point x="696" y="1023" type="line"/>
    </contour>
    <contour>
      <point x="222" y="1083" type="line"/>
      <point x="217" y="629" type="line"/>
      <point x="422" y="629" type="line"/>
      <point x="427" y="1083" type="line"/>
    </contour>
    <contour>
      <point x="219" y="820" type="line"/>
      <point x="217" y="620" type="line"/>
      <point x="778" y="620" type="line"/>
      <point x="780" y="820" type="line"/>
    </contour>
    <contour>
      <point x="578" y="680" type="line"/>
      <point x="571" y="29" type="line"/>
      <point x="771" y="29" type="line"/>
      <point x="778" y="680" type="line"/>
    </contour>
    <contour>
      <point x="99" y="201" type="line"/>
      <point x="97" y="0" type="line"/>
      <point x="772" y="0" type="line"/>
      <point x="774" y="201" type="line"/>
    </contour>
    <contour>
      <point x="101" y="423" type="line"/>
      <point x="97" y="0" type="line"/>
      <point x="298" y="0" type="line"/>
      <point x="302" y="423" type="line"/>
    </contour>
    <contour>
      <point x="809" y="1037" type="line"/>
      <point x="808" y="890" type="line"/>
      <point x="965" y="890" type="line"/>
      <point x="966" y="1037" type="line"/>
    </contour>
    <contour>
      <point x="444" y="-22" type="line"/>
      <point x="442" y="-218" type="line"/>
      <point x="799" y="-218" type="line"/>
      <point x="801" y="-22" type="line"/>
    </contour>
    <contour>
      <point x="658" y="-183" type="line"/>
      <point x="991" y="-588" type="line"/>
      <point x="1137" y="-425" type="line"/>
      <point x="803" y="-21" type="line"/>
    </contour>
  </outline>
</glyph>
<glyph name="uni091C_uni094D_uni091E_uni094D" format="2">
  <advance width="1024"/>
  <anchor x="839" y="1617" name="abvm_deva"/>
  <anchor x="807" y="-42" name="blwm_deva"/>
  <outline>
    <contour>
      <point x="-11" y="1548" type="line"/>
      <point x="-13" y="1350" type="line"/>
      <point x="1045" y="1350" type="line"/>
      <point x="1047" y="1548" type="line"/>
    </contour>
    <contour>
      <point x="701" y="1548" type="line"/>
      <point x="683" y="-12" type="line"/>
      <point x="882" y="-12" type="line"/>
      <point x="900" y="1548" type="line"/>
    </contour>
    <contour>
      <point x="412" y="860" type="line"/>
      <point x="410" y="663" type="line"/>
      <point x="824" y="663" type="line"/>
      <point x="826" y="860" type="line"/>
    </contour>
    <contour>
      <point x="366" y="860" type="line"/>
      <point x="361" y="413" type="line"/>
      <point x="561" y="413" type="line"/>
      <point x="566" y="860" type="line"/>
    </contour>
    <contour>
      <point x="53" y="567" type="line"/>
      <point x="51" y="367" type="line"/>
      <point x="561" y="367" type="line"/>
      <point x="563" y="567" type="line"/>
    </contour>
    <contour>
      <point x="51" y="368" type="line"/>
      <point x="195" y="75" type="line"/>
      <point x="453" y="75" type="line"/>
      <point x="294" y="368" type="line"/>
    </contour>
    <contour>
      <point x="649" y="-22" type="line"/>
      <point x="646" y="-218" type="line"/>
      <point x="1003" y="-218" type="line"/>
      <point x="1006" y="-22" type="line"/>
    </contour>
    <contour>
      <point x="863" y="-183" type="line"/>
      <point x="1195" y="-588" type="line"/>
      <point x="1341" y="-425" type="line"/>
      <point x="1008" y="-21" type="line"/>
    </contour>
  </outline>
</glyph>
<glyph name="uni0924_uni094D.half" format="2">
  <advance width="1024"/>
  <anchor x="864" y="1628" name="abvm_deva"/>
  <anchor x="804" y="-119" name="blwm_deva"/>
  <outline>
    <contour>
      <point x="-30" y="1562" type="line"/>
      <point x="-30" y="1362" type="line"/>
      <point x="1020" y="1362" type="line"/>
      <point x="1020" y="1562" type="line"/>
    </contour>
    <contour>
      <point x="1084" y="788" type="line"/>
      <point x="405" y="788" type="line"/>
      <point x="405" y="588" type="line"/>
      <point x="1084" y="588" type="line"/>
    </contour>
    <contour>
      <point x="405" y="588" type="line"/>
      <point x="544" y="0" type="line"/>
      <point x="744" y="0" type="line"/>
      <point x="605" y="588" type="line"/>
    </contour>
  </outline>
</glyph>
<glyph name="uni0924_uni094D.haln" format="2">
  <advance width="1024"/>
  <anchor x="864" y="1628" name="abvm_deva"/>
  <anchor x="804" y="-119" name="blwm_deva"/>
  <outline>
    <contour>
      <point x="2" y="1548" type="line"/>
      <point x="-1" y="1348" type="line"/>
      <point x="1024" y="1348" type="line"/>
      <point x="1027" y="1548" type="line"/>
    </contour>
    <contour>
      <point x="631" y="1511" type="line"/>
      <point x="614" y="0" type="line"/>
      <point x="813" y="0" type="line"/>
      <point x="830" y="1511" type="line"/>
    </contour>
    <contour>
      <point x="777" y="788" type="line"/>
      <point x="98" y="788" type="line"/>
      <point x="96" y="588" type="line"/>
      <point x="775" y="588" type="line"/>
    </contour>
    <contour>
      <point x="96" y="588" type="line"/>
      <point x="211" y="0" type="line"/>
      <point x="411" y="0" type="line"/>
      <point x="296" y="588" type="line"/>
    </contour>
    <contour>
      <point x="616" y="-22" type="line"/>
      <point x="614" y="-218" type="line"/>
      <point x="971" y="-218" type="line"/>
      <point x="973" y="-22" type="line"/>
    </contour>
    <contour>
      <point x="830" y="-183" type="line"/>
      <point x="1163" y="-588" type="line"/>
      <point x="1309" y="-425" type="line"/>
      <point x="975" y="-21" type="line"/>
    </contour>
  </outline>
</glyph>
<glyph name="uni0927_uni0930_uni094D.vatu" format="2">
  <advance width="1024"/>
  <anchor x="864" y="1628" name="abvm_deva"/>
  <anchor x="804" y="-119" name="blwm_deva"/>
  <outline>
    <contour>
      <point x="182" y="0" type="line"/>
      <point x="439" y="0" type="line"/>
      <point x="779" y="215" type="line"/>
      <point x="779" y="416" type="line"/>
    </contour>
    <contour>
      <point x="734" y="1548" type="line"/>
      <point x="734" y="1348" type="line"/>
      <point x="1035" y="1348" type="line"/>
      <point x="1035" y="1548" type="line"/>
    </contour>
    <contour>
      <point x="783" y="1440" type="line"/>
      <point x="783" y="-6" type="line"/>
      <point x="982" y="-6" type="line"/>
      <point x="982" y="1440" type="line"/>
    </contour>
    <contour>
      <point x="119" y="1548" type="line"/>
      <point x="119" y="1346" type="line"/>
      <point x="505" y="1346" type="line"/>
      <point x="505" y="1548" type="line"/>
    </contour>
    <contour>
      <point x="113" y="1501" type="line"/>
      <point x="113" y="808" type="line"/>
      <point x="312" y="808" type="line"/>
      <point x="312" y="1501" type="line"/>
    </contour>
    <contour>
      <point x="112" y="882" type="line"/>
      <point x="112" y="681" type="line"/>
      <point x="511" y="681" type="line"/>
      <point x="511" y="882" type="line"/>
    </contour>
    <contour>
      <point x="146" y="711" type="line"/>
      <point x="146" y="310" type="line"/>
      <point x="346" y="310" type="line"/>
      <point x="346" y="711" type="line"/>
    </contour>
    <contour>
      <point x="146" y="431" type="line"/>
      <point x="146" y="231" type="line"/>
      <point x="849" y="231" type="line"/>
      <point x="849" y="431" type="line"/>
    </contour>
  </outline>
</glyph>
<glyph name="uni092D_uni094D.haln" format="2">
  <advance width="1024"/>
  <anchor x="839" y="1617" name="abvm_deva"/>
  <anchor x="779" y="-130" name="blwm_deva"/>
  <outline>
    <contour>
      <point x="1" y="169" type="line"/>
      <point x="-1" y="0" type="line"/>
      <point x="461" y="0" type="line"/>
      <point x="463" y="169" type="line"/>
    </contour>
    <contour>
      <point x="4" y="473" type="line"/>
      <point x="-1" y="0" type="line"/>
      <point x="185" y="0" type="line"/>
      <point x="190" y="473" type="line"/>
    </contour>
    <contour>
      <point x="602" y="1548" type="line"/>
      <point x="600" y="1348" type="line"/>
      <point x="1045" y="1348" type="line"/>
      <point x="1047" y="1548" type="line"/>
    </contour>
    <contour>
      <point x="772" y="1543" type="line"/>
      <point x="755" y="0" type="line"/>
      <point x="954" y="0" type="line"/>
      <point x="971" y="1543" type="line"/>
    </contour>
    <contour>
      <point x="57" y="1532" type="line"/>
      <point x="52" y="1079" type="line"/>
      <point x="252" y="1079" type="line"/>
      <point x="257" y="1532" type="line"/>
    </contour>
    <contour>
      <point x="83" y="1537" type="line"/>
      <point x="81" y="1338" type="line"/>
      <point x="373" y="1338" type="line"/>
      <point x="375" y="1537" type="line"/>
    </contour>
    <contour>
      <point x="310" y="1537" type="line"/>
      <point x="293" y="5" type="line"/>
      <point x="492" y="5" type="line"/>
      <point x="509" y="1537" type="line"/>
    </contour>
    <contour>
      <point x="104" y="473" type="line"/>
      <point x="102" y="273" type="line"/>
      <point x="929" y="273" type="line"/>
      <point x="931" y="473" type="line"/>
    </contour>
    <contour>
      <point x="487" y="-22" type="line"/>
      <point x="485" y="-218" type="line"/>
      <point x="842" y="-218" type="line"/>
      <point x="844" y="-22" type="line"/>
    </contour>
    <contour>
      <point x="701" y="-183" type="line"/>
      <point x="1034" y="-588" type="line"/>
      <point x="1180" y="-425" type="line"/>
      <point x="846" y="-21" type="line"/>
    </contour>
  </outline>
</glyph>
<glyph name="uni0930_uni094D.blwf" format="2">
  <advance width="0"/>
  <anchor x="26" y="-47" name="_blwm_deva"/>
  <outline>
    <contour>
      <point x="-96" y="-225" type="line"/>
      <point x="232" y="-615" type="line"/>
      <point x="411" y="-615" type="line"/>
      <point x="26" y="-56" type="line"/>
    </contour>
    <contour>
      <point x="26" y="-56" type="line"/>
      <point x="-381" y="-615" type="line"/>
      <point x="-160" y="-615" type="line"/>
      <point x="140" y="-221" type="line"/>
    </contour>
  </outline>
</glyph>
<glyph name="uni0932_uni094D.half" format="2">
  <advance width="1024"/>
  <anchor x="839" y="1617" name="abvm_deva"/>
  <anchor x="779" y="-130" name="blwm_deva"/>
  <outline>
    <contour>
      <point x="-11" y="1548" type="line"/>
      <point x="-11" y="1344" type="line"/>
      <point x="1025" y="1344" type="line"/>
      <point x="1025" y="1548" type="line"/>
    </contour>
    <contour>
      <point x="252" y="703" type="line"/>
      <point x="252" y="194" type="line"/>
      <point x="455" y="194" type="line"/>
      <point x="455" y="703" type="line"/>
    </contour>
    <contour>
      <point x="252" y="782" type="line"/>
      <point x="252" y="582" type="line"/>
      <point x="1034" y="582" type="line"/>
      <point x="1034" y="782" type="line"/>
    </contour>
    <contour>
      <point x="595" y="689" type="line"/>
      <point x="595" y="374" type="line"/>
      <point x="795" y="374" type="line"/>
      <point x="795" y="689" type="line"/>
    </contour>
  </outline>
</glyph>
<glyph name="uni0933_uni0930_uni094D.vatu" format="2">
  <advance width="1024"/>
  <anchor x="839" y="1617" name="abvm_deva"/>
  <anchor x="779" y="-130" name="blwm_deva"/>
  <outline>
    <contour>
      <point x="340" y="215" type="line"/>
      <point x="564" y="-165" type="line"/>
      <point x="846" y="-165" type="line"/>
      <point x="462" y="384" type="line"/>
    </contour>
    <contour>
      <point x="462" y="384" type="line"/>
      <point x="55" y="-174" type="line"/>
      <point x="276" y="-174" type="line"/>
      <point x="577" y="219" type="line"/>
    </contour>
    <contour>
      <point x="-11" y="1548" type="line"/>
      <point x="-11" y="1344" type="line"/>
      <point x="1025" y="1344" type="line"/>
      <point x="1025" y="1548" type="line"/>
    </contour>
    <contour>
      <point x="900" y="1548" type="line"/>
      <point x="700" y="1548" type="line"/>
      <point x="700" y="393" type="line"/>
      <point x="900" y="393" type="line"/>
    </contour>
    <contour>
      <point x="32" y="902" type="line"/>
      <point x="32" y="393" type="line"/>
      <point x="235" y="393" type="line"/>
      <point x="235" y="902" type="line"/>
    </contour>
    <contour>
      <point x="32" y="981" type="line"/>
      <point x="32" y="781" type="line"/>
      <point x="814" y="781" type="line"/>
      <point x="814" y="981" type="line"/>
    </contour>
    <contour>
      <point x="375" y="888" type="line"/>
      <point x="375" y="573" type="line"/>
      <point x="575" y="573" type="line"/>
      <point x="575" y="888" type="line"/>
    </contour>
    <contour>
      <point x="34" y="590" type="line"/>
      <point x="34" y="390" type="line"/>
      <point x="900" y="390" type="line"/>
      <point x="900" y="590" type="line"/>
    </contour>
  </outline>
</glyph>
<glyph name="uni0939_uni094D.haln" format="2">
  <advance width="1024"/>
  <anchor x="839" y="1617" name="abvm_deva"/>
  <anchor x="779" y="-130" name="blwm_deva"/>
  <outline>
    <contour>
      <point x="-1" y="1548" type="line"/>
      <point x="4" y="1351" type="line"/>
      <point x="1035" y="1351" type="line"/>
      <point x="1030" y="1548" type="line"/>
    </contour>
    <contour>
      <point x="459" y="1510" type="line"/>
      <point x="468" y="1174" type="line"/>
      <point x="665" y="1174" type="line"/>
      <point x="656" y="1510" type="line"/>
    </contour>
    <contour>
      <point x="669" y="1196" type="line"/>
      <point x="336" y="1196" type="line"/>
      <point x="341" y="996" type="line"/>
      <point x="674" y="996" type="line"/>
    </contour>
    <contour>
      <point x="208" y="1195" type="line"/>
      <point x="219" y="785" type="line"/>
      <point x="420" y="785" type="line"/>
      <point x="409" y="1195" type="line"/>
    </contour>
    <contour>
      <point x="526" y="789" type="line"/>
      <point x="531" y="577" type="line"/>
      <point x="729" y="577" type="line"/>
      <point x="724" y="789" type="line"/>
    </contour>
    <contour>
      <point x="162" y="841" type="line"/>
      <point x="167" y="643" type="line"/>
      <point x="727" y="643" type="line"/>
      <point x="722" y="841" type="line"/>
    </contour>
    <contour>
      <point x="164" y="793" type="line"/>
      <point x="178" y="215" type="line"/>
      <point x="378" y="215" type="line"/>
      <point x="364" y="793" type="line"/>
    </contour>
    <contour>
      <point x="377" y="215" type="line"/>
      <point x="178" y="215" type="line"/>
      <point x="434" y="0" type="line"/>
      <point x="641" y="0" type="line"/>
    </contour>
    <contour>
      <point x="663" y="-22" type="line"/>
      <point x="668" y="-218" type="line"/>
      <point x="1025" y="-218" type="line"/>
      <point x="1020" y="-22" type="line"/>
    </contour>
    <contour>
      <point x="883" y="-183" type="line"/>
      <point x="1230" y="-588" type="line"/>
      <point x="1370" y="-425" type="line"/>
      <point x="1022" y="-21" type="line"/>
    </contour>
  </outline>
</glyph>
<glyph name="uni0939_uni094D_uni092E.pres" format="2">
  <advance width="1024"/>
  <anchor x="839" y="1617" name="abvm_deva"/>
  <anchor x="779" y="-130" name="blwm_deva"/>
  <outline>
    <contour>
      <point x="-6" y="1548" type="line"/>
      <point x="-6" y="1351" type="line"/>
      <point x="1025" y="1351" type="line"/>
      <point x="1025" y="1548" type="line"/>
    </contour>
    <contour>
      <point x="453" y="1510" type="line"/>
      <point x="453" y="1174" type="line"/>
      <point x="650" y="1174" type="line"/>
      <point x="650" y="1510" type="line"/>
    </contour>
    <contour>
      <point x="655" y="1196" type="line"/>
      <point x="322" y="1196" type="line"/>
      <point x="322" y="996" type="line"/>
      <point x="655" y="996" type="line"/>
    </contour>
    <contour>
      <point x="194" y="1195" type="line"/>
      <point x="194" y="785" type="line"/>
      <point x="395" y="785" type="line"/>
      <point x="395" y="1195" type="line"/>
    </contour>
    <contour>
      <point x="529" y="841" type="line"/>
      <point x="529" y="82" type="line"/>
      <point x="727" y="82" type="line"/>
      <point x="727" y="841" type="line"/>
    </contour>
    <contour>
      <point x="29" y="841" type="line"/>
      <point x="29" y="643" type="line"/>
      <point x="699" y="643" type="line"/>
      <point x="699" y="841" type="line"/>
    </contour>
    <contour>
      <point x="29" y="793" type="line"/>
      <point x="29" y="316" type="line"/>
      <point x="229" y="316" type="line"/>
      <point x="229" y="793" type="line"/>
    </contour>
    <contour>
      <point x="397" y="169" type="line"/>
      <point x="397" y="0" type="line"/>
      <point x="728" y="0" type="line"/>
      <point x="728" y="169" type="line"/>
    </contour>
    <contour>
      <point x="309" y="473" type="line"/>
      <point x="309" y="0" type="line"/>
      <point x="495" y="0" type="line"/>
      <point x="495" y="473" type="line"/>
    </contour>
    <contour>
      <point x="756" y="1543" type="line"/>
      <point x="756" y="0" type="line"/>
      <point x="955" y="0" type="line"/>
      <point x="955" y="1543" type="line"/>
    </contour>
    <contour>
      <point x="455" y="473" type="line"/>
      <point x="455" y="273" type="line"/>
      <point x="831" y="273" type="line"/>
      <point x="831" y="473" type="line"/>
    </contour>
    <contour>
      <point x="235" y="316" type="line"/>
      <point x="29" y="316" type="line"/>
      <point x="187" y="0" type="line"/>
      <point x="263" y="8" type="line"/>
    </contour>
  </outline>
</glyph>
<glyph name="uni095A_uni0930_uni094D.vatu" format="2">
  <advance width="1024"/>
  <anchor x="839" y="1617" name="abvm_deva"/>
  <anchor x="779" y="-130" name="blwm_deva"/>
  <outline>
    <contour>
      <point x="200" y="572" type="line"/>
      <point x="200" y="325" type="line"/>
      <point x="465" y="325" type="line"/>
      <point x="465" y="572" type="line"/>
    </contour>
    <contour>
      <point x="153" y="0" type="line"/>
      <point x="410" y="0" type="line"/>
      <point x="750" y="215" type="line"/>
      <point x="750" y="416" type="line"/>
    </contour>
    <contour>
      <point x="102" y="853" type="line"/>
      <point x="301" y="853" type="line"/>
      <point x="301" y="1044" type="line"/>
      <point x="102" y="1044" type="line"/>
    </contour>
    <contour>
      <point x="102" y="882" type="line"/>
      <point x="102" y="683" type="line"/>
      <point x="578" y="683" type="line"/>
      <point x="578" y="882" type="line"/>
    </contour>
    <contour>
      <point x="379" y="1548" type="line"/>
      <point x="379" y="812" type="line"/>
      <point x="578" y="812" type="line"/>
      <point x="578" y="1548" type="line"/>
    </contour>
    <contour>
      <point x="1012" y="1548" type="line"/>
      <point x="261" y="1548" type="line"/>
      <point x="261" y="1348" type="line"/>
      <point x="1012" y="1348" type="line"/>
    </contour>
    <contour>
      <point x="732" y="1523" type="line"/>
      <point x="732" y="0" type="line"/>
      <point x="931" y="0" type="line"/>
      <point x="931" y="1523" type="line"/>
    </contour>
  </outline>
</glyph>
<glyph name="uni095D_uni094D.haln" format="2">
  <advance width="1024"/>
  <anchor x="839" y="1617" name="abvm_deva"/>
  <anchor x="779" y="-130" name="blwm_deva"/>
  <outline>
    <contour>
      <point x="3" y="1548" type="line"/>
      <point x="0" y="1348" type="line"/>
      <point x="1014" y="1348" type="line"/>
      <point x="1017" y="1548" type="line"/>
    </contour>
    <contour>
      <point x="563" y="1528" type="line"/>
      <point x="552" y="988" type="line"/>
      <point x="752" y="988" type="line"/>
      <point x="763" y="1528" type="line"/>
    </contour>
    <contour>
      <point x="753" y="1023" type="line"/>
      <point x="104" y="1023" type="line"/>
      <point x="100" y="822" type="line"/>
      <point x="749" y="822" type="line"/>
    </contour>
    <contour>
      <point x="83" y="1023" type="line"/>
      <point x="63" y="5" type="line"/>
      <point x="263" y="5" type="line"/>
      <point x="283" y="1023" type="line"/>
    </contour>
    <contour>
      <point x="68" y="201" type="line"/>
      <point x="63" y="0" type="line"/>
      <point x="776" y="0" type="line"/>
      <point x="781" y="201" type="line"/>
    </contour>
    <contour>
      <point x="588" y="544" type="line"/>
      <point x="577" y="0" type="line"/>
      <point x="778" y="0" type="line"/>
      <point x="789" y="544" type="line"/>
    </contour>
    <contour>
      <point x="535" y="547" type="line"/>
      <point x="530" y="347" type="line"/>
      <point x="782" y="347" type="line"/>
      <point x="787" y="547" type="line"/>
    </contour>
    <contour>
      <point x="49" y="-58" type="line"/>
      <point x="45" y="-305" type="line"/>
      <point x="309" y="-305" type="line"/>
      <point x="313" y="-58" type="line"/>
    </contour>
    <contour>
      <point x="406" y="-22" type="line"/>
      <point x="402" y="-218" type="line"/>
      <point x="759" y="-218" type="line"/>
      <point x="763" y="-22" type="line"/>
    </contour>
    <contour>
      <point x="619" y="-183" type="line"/>
      <point x="949" y="-588" type="line"/>
      <point x="1095" y="-425" type="line"/>
      <point x="765" y="-21" type="line"/>
    </contour>
  </outline>
</glyph>
<glyph name="uni095E_uni094D.half" format="2">
  <advance width="1024"/>
  <anchor x="643" y="1669" name="abvm_deva"/>
  <anchor x="583" y="-78" name="blwm_deva"/>
  <outline>
    <contour>
      <point x="-30" y="1548" type="line"/>
      <point x="-30" y="1349" type="line"/>
      <point x="1031" y="1349" type="line"/>
      <point x="1031" y="1548" type="line"/>
    </contour>
    <contour>
      <point x="513" y="1537" type="line"/>
      <point x="513" y="0" type="line"/>
      <point x="713" y="0" type="line"/>
      <point x="713" y="1537" type="line"/>
    </contour>
    <contour>
      <point x="94" y="1548" type="line"/>
      <point x="94" y="837" type="line"/>
      <point x="295" y="837" type="line"/>
      <point x="295" y="1548" type="line"/>
    </contour>
    <contour>
      <point x="94" y="1023" type="line"/>
      <point x="94" y="824" type="line"/>
      <point x="1018" y="824" type="line"/>
      <point x="1018" y="1023" type="line"/>
    </contour>
    <contour>
      <point x="198" y="6" type="line"/>
      <point x="198" y="-241" type="line"/>
      <point x="462" y="-241" type="line"/>
      <point x="462" y="6" type="line"/>
    </contour>
  </outline>
</glyph>
<glyph name="uni0B95_uni0BC1" format="2">
  <advance width="1024"/>
  <outline>
    <contour>
      <point x="338" y="1222" type="line"/>
      <point x="338" y="1022" type="line"/>
      <point x="957" y="1022" type="line"/>
      <point x="957" y="1222" type="line"/>
    </contour>
    <contour>
      <point x="339" y="1192" type="line"/>
      <point x="339" y="651" type="line"/>
      <point x="539" y="651" type="line"/>
      <point x="539" y="1192" type="line"/>
    </contour>
    <contour>
      <point x="571" y="1192" type="line"/>
      <point x="562" y="0" type="line"/>
      <point x="762" y="0" type="line"/>
      <point x="771" y="1192" type="line"/>
    </contour>
    <contour>
      <point x="324" y="200" type="line"/>
      <point x="315" y="0" type="line"/>
      <point x="761" y="0" type="line"/>
      <point x="765" y="200" type="line"/>
    </contour>
    <contour>
      <point x="254" y="621" type="line"/>
      <point x="244" y="0" type="line"/>
      <point x="444" y="0" type="line"/>
      <point x="453" y="621" type="line"/>
    </contour>
    <contour>
      <point x="253" y="653" type="line"/>
      <point x="253" y="453" type="line"/>
      <point x="888" y="453" type="line"/>
      <point x="888" y="653" type="line"/>
    </contour>
    <contour>
      <point x="796" y="653" type="line"/>
      <point x="798" y="-385" type="line"/>
      <point x="998" y="-385" type="line"/>
      <point x="996" y="653" type="line"/>
    </contour>
    <contour>
      <point x="213" y="-208" type="line"/>
      <point x="213" y="-410" type="line"/>
      <point x="998" y="-410" type="line"/>
      <point x="998" y="-208" type="line"/>
    </contour>
    <contour>
      <point x="14" y="1312" type="line"/>
      <point x="24" y="-410" type="line"/>
      <point x="224" y="-410" type="line"/>
      <point x="214" y="1312" type="line"/>
    </contour>
  </outline>
</glyph>
<glyph name="uni0B9E_uni0BC2" format="2">
  <advance width="1024"/>
  <outline>
    <contour>
      <point x="12.0797" y="-27" type="line"/>
      <point x="10.6932" y="-291" type="line"/>
      <point x="150.727" y="-293" type="line"/>
      <point x="150.727" y="-27" type="line"/>
    </contour>
    <contour>
      <point x="10.6932" y="-273" type="line"/>
      <point x="10" y="-464" type="line"/>
      <point x="551.416" y="-478" type="line"/>
      <point x="551.416" y="-278" type="line"/>
    </contour>
    <contour>
      <point x="251.939" y="1194" type="line"/>
      <point x="254.019" y="1" type="line"/>
      <point x="392.665" y="1" type="line"/>
      <point x="390.586" y="1194" type="line"/>
    </contour>
    <contour>
      <point x="132.703" y="1223" type="line"/>
      <point x="132.703" y="1023" type="line"/>
      <point x="558.349" y="1023" type="line"/>
      <point x="558.349" y="1223" type="line"/>
    </contour>
    <contour>
      <point x="55.0602" y="1223" type="line"/>
      <point x="53.6738" y="0" type="line"/>
      <point x="193.707" y="0" type="line"/>
      <point x="193.707" y="1223" type="line"/>
    </contour>
    <contour>
      <point x="191.627" y="187" type="line"/>
      <point x="191.627" y="1" type="line"/>
      <point x="235.994" y="1" type="line"/>
      <point x="235.994" y="187" type="line"/>
    </contour>
    <contour>
      <point x="346.912" y="797" type="line"/>
      <point x="346.912" y="597" type="line"/>
      <point x="554.189" y="597" type="line"/>
      <point x="554.189" y="797" type="line"/>
    </contour>
    <contour>
      <point x="412.769" y="722" type="line"/>
      <point x="412.769" y="-346" type="line"/>
      <point x="551.416" y="-346" type="line"/>
      <point x="551.416" y="722" type="line"/>
    </contour>
    <contour>
      <point x="200.639" y="126" type="line"/>
      <point x="224.903" y="126" type="line"/>
      <point x="224.903" y="52" type="line"/>
      <point x="200.639" y="52" type="line"/>
    </contour>
    <contour>
      <point x="129.236" y="-221" type="line"/>
      <point x="642.923" y="-227" type="line"/>
      <point x="642.923" y="-19" type="line"/>
      <point x="129.236" y="-28" type="line"/>
    </contour>
    <contour>
      <point x="638" y="1216" type="line"/>
      <point x="638" y="-227" type="line"/>
      <point x="777" y="-227" type="line"/>
      <point x="777" y="1216" type="line"/>
    </contour>
    <contour>
      <point x="640" y="1220" type="line"/>
      <point x="640" y="1020" type="line"/>
      <point x="1011" y="1020" type="line"/>
      <point x="1011" y="1220" type="line"/>
    </contour>
    <contour>
      <point x="848.947" y="1208" type="line"/>
      <point x="848.947" y="-13" type="line"/>
      <point x="958.867" y="-13" type="line"/>
      <point x="958.867" y="1208" type="line"/>
    </contour>
  </outline>
</glyph>
<glyph name="uni0BAE_uni0BC1" format="2">
  <advance width="1024"/>
  <outline>
    <contour>
      <point x="326" y="1226" type="line"/>
      <point x="326" y="2" type="line"/>
      <point x="474" y="2" type="line"/>
      <point x="474" y="1226" type="line"/>
    </contour>
    <contour>
      <point x="326" y="200" type="line"/>
      <point x="326" y="0" type="line"/>
      <point x="909" y="0" type="line"/>
      <point x="909" y="200" type="line"/>
    </contour>
    <contour>
      <point x="570" y="1198" type="line"/>
      <point x="570" y="-405" type="line"/>
      <point x="718" y="-405" type="line"/>
      <point x="718" y="1198" type="line"/>
    </contour>
    <contour>
      <point x="816" y="1169" type="line"/>
      <point x="816" y="0" type="line"/>
      <point x="964" y="0" type="line"/>
      <point x="964" y="1169" type="line"/>
    </contour>
    <contour>
      <point x="570" y="1225" type="line"/>
      <point x="570" y="1025" type="line"/>
      <point x="962" y="1025" type="line"/>
      <point x="962" y="1225" type="line"/>
    </contour>
    <contour>
      <point x="65" y="1228" type="line"/>
      <point x="65" y="-401" type="line"/>
      <point x="213" y="-401" type="line"/>
      <point x="213" y="1228" type="line"/>
    </contour>
    <contour>
      <point x="65" y="-203" type="line"/>
      <point x="65" y="-403" type="line"/>
      <point x="649" y="-403" type="line"/>
      <point x="649" y="-203" type="line"/>
    </contour>
  </outline>
</glyph>
<glyph name="uni0BB2_uni0BC2" format="2">
  <advance width="1024"/>
  <outline>
    <contour>
      <point x="47" y="1221" type="line"/>
      <point x="47" y="0" type="line"/>
      <point x="247" y="0" type="line"/>
      <point x="247" y="1221" type="line"/>
    </contour>
    <contour>
      <point x="238" y="200" type="line"/>
      <point x="238" y="0" type="line"/>
      <point x="400" y="0" type="line"/>
      <point x="400" y="200" type="line"/>
    </contour>
    <contour>
      <point x="47" y="1221" type="line"/>
      <point x="47" y="1021" type="line"/>
      <point x="618" y="1021" type="line"/>
      <point x="618" y="1221" type="line"/>
    </contour>
    <contour>
      <point x="433" y="1224" type="line"/>
      <point x="433" y="0" type="line"/>
      <point x="633" y="0" type="line"/>
      <point x="633" y="1224" type="line"/>
    </contour>
    <contour>
      <point x="533" y="201" type="line"/>
      <point x="533" y="1" type="line"/>
      <point x="850" y="1" type="line"/>
      <point x="850" y="201" type="line"/>
    </contour>
    <contour>
      <point x="782" y="1207" type="line"/>
      <point x="782" y="0" type="line"/>
      <point x="982" y="0" type="line"/>
      <point x="982" y="1207" type="line"/>
    </contour>
    <contour>
      <point x="254" y="153" type="line"/>
      <point x="342" y="153" type="line"/>
      <point x="342" y="49" type="line"/>
      <point x="254" y="49" type="line"/>
    </contour>
    <contour>
      <point x="789.747" y="26.1067" type="line"/>
      <point x="779.961" y="-588" type="line"/>
      <point x="975.668" y="-588" type="line"/>
      <point x="985.454" y="26.1067" type="line"/>
    </contour>
    <contour>
      <point x="142.283" y="-372.233" type="line"/>
      <point x="142.283" y="-579.701" type="line"/>
      <point x="975.668" y="-586.963" type="line"/>
      <point x="975.668" y="-379.494" type="line"/>
    </contour>
    <contour>
      <point x="142.283" y="-182.399" type="line"/>
      <point x="142.283" y="-579.701" type="line"/>
      <point x="337.99" y="-579.701" type="line"/>
      <point x="337.99" y="-182.399" type="line"/>
    </contour>
    <contour>
      <point x="147.176" y="-295.469" type="line"/>
      <point x="1221.93" y="-301.693" type="line"/>
      <point x="1221.93" y="-85.9263" type="line"/>
      <point x="147.176" y="-95.2623" type="line"/>
    </contour>
    <contour>
      <point x="1058.84" y="1207.64" type="line"/>
      <point x="1062.11" y="-300.656" type="line"/>
      <point x="1256.18" y="-304.806" type="line"/>
      <point x="1252.92" y="1203.49" type="line"/>
    </contour>
    <contour>
      <point x="1055.58" y="1204.53" type="line"/>
      <point x="1055.58" y="1002.25" type="line"/>
      <point x="1598.67" y="1002.25" type="line"/>
      <point x="1598.67" y="1204.53" type="line"/>
    </contour>
    <contour>
      <point x="1327.94" y="1197.27" type="line"/>
      <point x="1327.94" y="-69.3288" type="line"/>
      <point x="1523.65" y="-66.2167" type="line"/>
      <point x="1523.65" y="1200.38" type="line"/>
    </contour>
  </outline>
</glyph>
<glyph name="uni0BB3_uni0BC1" format="2">
  <advance width="1024"/>
  <outline>
    <contour>
      <point x="654" y="1233" type="line"/>
      <point x="654" y="4" type="line"/>
      <point x="773" y="4" type="line"/>
      <point x="773" y="1236" type="line"/>
    </contour>
    <contour>
      <point x="456.47" y="1233" type="line"/>
      <point x="456.47" y="4" type="line"/>
      <point x="576.242" y="4" type="line"/>
      <point x="576.242" y="1236" type="line"/>
    </contour>
    <contour>
      <point x="543.305" y="1036" type="line"/>
      <point x="754" y="1036" type="line"/>
      <point x="754" y="1236" type="line"/>
      <point x="543.305" y="1236" type="line"/>
    </contour>
    <contour>
      <point x="214.53" y="1142" type="line"/>
      <point x="223.513" y="4" type="line"/>
      <point x="344.483" y="4" type="line"/>
      <point x="332.506" y="1199" type="line"/>
    </contour>
    <contour>
      <point x="332.506" y="1199" type="line"/>
      <point x="334.302" y="981" type="line"/>
      <point x="467.848" y="964" type="line"/>
      <point x="467.848" y="1091" type="line"/>
    </contour>
    <contour>
      <point x="343.285" y="167" type="line"/>
      <point x="380.415" y="166" type="line"/>
      <point x="380.415" y="98" type="line"/>
      <point x="344.483" y="99" type="line"/>
    </contour>
    <contour>
      <point x="337.896" y="247" type="line"/>
      <point x="339.692" y="4" type="line"/>
      <point x="424.73" y="4" type="line"/>
      <point x="424.131" y="246" type="line"/>
    </contour>
    <contour>
      <point x="851" y="647" type="line"/>
      <point x="851" y="-394" type="line"/>
      <point x="992" y="-394" type="line"/>
      <point x="992" y="647" type="line"/>
    </contour>
    <contour>
      <point x="18" y="1227" type="line"/>
      <point x="18" y="-390" type="line"/>
      <point x="159" y="-390" type="line"/>
      <point x="159" y="1227" type="line"/>
    </contour>
    <contour>
      <point x="18" y="-192" type="line"/>
      <point x="18" y="-392" type="line"/>
      <point x="926" y="-392" type="line"/>
      <point x="926" y="-192" type="line"/>
    </contour>
    <contour>
      <point x="772" y="567" type="line"/>
      <point x="770" y="423" type="line"/>
      <point x="851" y="516" type="line"/>
      <point x="851" y="643" type="line"/>
    </contour>
    <contour>
      <point x="119" y="1227" type="line"/>
      <point x="119" y="837" type="line"/>
      <point x="202" y="837" type="line"/>
      <point x="202" y="1227" type="line"/>
    </contour>
    <contour>
      <point x="160" y="1153" type="line"/>
      <point x="183" y="1153" type="line"/>
      <point x="183" y="927" type="line"/>
      <point x="160" y="927" type="line"/>
    </contour>
  </outline>
</glyph>
<glyph name="uni0BC1.alt" format="2">
  <advance width="0"/>
  <outline>
    <contour>
      <point x="-100" y="62" type="line"/>
      <point x="-100" y="-487" type="line"/>
      <point x="100" y="-487" type="line"/>
      <point x="100" y="62" type="line"/>
    </contour>
  </outline>
</glyph>
